<svg width="512" height="512" viewBox="0 0 512 512" fill="none" xmlns="http://www.w3.org/2000/svg">
<path d="M472.5 128V135.5H480C493.558 135.5 504.5 146.442 504.5 160V224C504.5 237.558 493.558 248.5 480 248.5H472.5V256V416C472.5 429.558 461.558 440.5 448 440.5H440.5V448V480C440.5 493.558 429.558 504.5 416 504.5H384C370.442 504.5 359.5 493.558 359.5 480V448V440.5H352H160H152.5V448V480C152.5 493.558 141.558 504.5 128 504.5H96C82.4421 504.5 71.5 493.558 71.5 480V448V440.5H64C50.4676 440.5 39.5 429.553 39.5 416V256V248.5H32C18.4676 248.5 7.5 237.553 7.5 224V160C7.5 146.447 18.4676 135.5 32 135.5H39.5V128V80C39.5 71.5334 43.6816 62.8019 53.1608 54.1352C62.6884 45.4242 77.112 37.2469 96.1861 30.24C134.292 16.242 189.346 7.5 256 7.5C322.654 7.5 377.708 16.242 415.814 30.24C434.888 37.2469 449.312 45.4242 458.839 54.1352C468.318 62.8019 472.5 71.5334 472.5 80V128ZM240 295.5H247.5V288V128V120.5H240H128C106.158 120.5 88.5 138.158 88.5 160V256C88.5 277.842 106.158 295.5 128 295.5H240ZM264.5 288V295.5H272H384C405.842 295.5 423.5 277.842 423.5 256V160C423.5 138.158 405.842 120.5 384 120.5H272H264.5V128V288ZM112 407.5C133.842 407.5 151.5 389.842 151.5 368C151.5 346.158 133.842 328.5 112 328.5C90.1579 328.5 72.5 346.158 72.5 368C72.5 389.842 90.1579 407.5 112 407.5ZM400 407.5C421.842 407.5 439.5 389.842 439.5 368C439.5 346.158 421.842 328.5 400 328.5C378.158 328.5 360.5 346.158 360.5 368C360.5 389.842 378.158 407.5 400 407.5ZM336 56.5H176C163.07 56.5 152.5 67.0057 152.5 80C152.5 92.9943 163.07 103.5 176 103.5H336C348.93 103.5 359.5 92.9943 359.5 80C359.5 67.0057 348.93 56.5 336 56.5Z" fill="#078B07" stroke="black" stroke-width="15"/>
</svg>
