<?xml version="1.0" standalone="yes"?>
<svg xmlns="http://www.w3.org/2000/svg" width="512" height="512">
<path style="fill:#fefeff; stroke:none;" d="M0 0L0 125L1 125C9.24344 109.12 28.9861 113 44 113L166 113L400 113L458 113C466.903 113 477.373 111.427 484.711 117.613C493.301 124.856 493.537 138.687 495.6 149C500.825 175.12 508.888 202.465 511 229L512 229L512 0L0 0z"/>
<path style="fill:#1785b9; stroke:none;" d="M0 308L355 308L432 308C440.143 308 454.139 310.588 460.657 304.57C468.139 297.662 465 281.167 465 272C443.275 269.252 421.313 265.442 401 256.988C392.897 253.616 383.029 249.357 379.05 241C372.675 227.61 377 204.624 377 190L377 159C377.007 154.798 376.743 149.671 380.394 146.742C385.023 143.029 395.399 145 401 145L456 145L451 114C464.173 114 481.85 110.816 489 125.001C492.038 131.027 492.321 138.511 494 145C496.51 134.379 489.786 117.382 478.999 113.989C470.554 111.333 459.775 113 451 113L394 113L112 113L38 113C28.3889 113 15.3185 110.736 7.01543 116.652C-5.39338 125.493 0 152.503 0 166L0 308z"/>
<path style="fill:#17667f; stroke:none;" d="M451 114L456 145L494 145C492.576 137.656 492.09 128.385 487.867 122.04C480.279 110.643 462.744 114 451 114z"/>
<path style="fill:#65b3d8; stroke:none;" d="M37 145L38 146L37 145z"/>
<path style="fill:#b1e5fc; stroke:none;" d="M96 241L96 172C96 166.154 98.6845 151.29 94.9722 146.603C92.6324 143.649 85.3155 145 82 145L49 145C44.9348 145 38.7158 143.938 35.7423 147.434C32.1034 151.711 34 161.743 34 167L34 219C34 224.072 31.7805 236.439 36.5139 239.821C40.3302 242.548 48.5317 241 53 241L96 241z"/>
<path style="fill:#65b3d8; stroke:none;" d="M95 145L96 146L95 145M111 145L111 242L169 242L169 241L112 241L112 174L111 145z"/>
<path style="fill:#b1e5fc; stroke:none;" d="M112 145L112 241L154 241C158.468 241 166.67 242.548 170.486 239.821C175.22 236.439 173 224.072 173 219L173 166C173 160.843 174.964 150.483 170.566 146.742C166.743 143.49 158.664 145 154 145L112 145z"/>
<path style="fill:#65b3d8; stroke:none;" d="M169 145L170 146L169 145M204 148L208 146L204 148z"/>
<path style="fill:#b1e5fc; stroke:none;" d="M265 241L265 145L223 145C218.266 145 210.238 143.509 206.318 146.742C201.976 150.323 204 160.962 204 166L204 219C204 223.997 201.726 236.732 206.434 239.972C210.231 242.586 218.574 241 223 241L265 241z"/>
<path style="fill:#65b3d8; stroke:none;" d="M265 145L265 241L266 241L266 174L265 145z"/>
<path style="fill:#b1e5fc; stroke:none;" d="M281 145L281 241L325 241C329.062 241 337.256 242.537 340.397 239.397C344.023 235.77 342 224.762 342 220L342 167C342 162.12 344.295 149.257 339.682 146.179C335.659 143.495 327.627 145 323 145L281 145z"/>
<path style="fill:#65b3d8; stroke:none;" d="M339 145L340 146L339 145M381.667 145.333L382.333 145.667L381.667 145.333z"/>
<path style="fill:#b1e5fc; stroke:none;" d="M512 275C512 261.511 513.172 247.422 511.829 234C509.963 215.33 504.48 196.403 500.8 178C499.411 171.054 499.159 150.41 493.411 146.028C489.909 143.358 481.204 145 477 145L432 145L394 145C389.686 145 382.848 143.918 379.603 147.514C376.932 150.475 378 156.335 378 160L378 192C378 205.681 373.158 230.954 380.09 242.996C386.093 253.427 403.141 258.399 414 261.576C445.334 270.741 479.409 275 512 275z"/>
<path style="fill:#65b3d8; stroke:none;" d="M494 145L495 146L494 145M35 146L36 147L35 146M171 146L172 147L171 146M341 146L342 147L341 146M379 146L380 147L379 146M34 148L35 149L34 148M172 148L173 149L172 148M342 148L342 238L343 238L343 176L342 148M495 148L495 151L496 151L495 148M377 150L377 237L378 237L378 177L377 150M496 153L496 156L497 156L496 153M497 158L497 161L498 161L497 158M498 163L498 166L499 166L498 163M499 168L499 172L500 172L499 168M500 173L500 177L501 177L500 173M501 178L501 182L502 182L501 178M502 184L502 187L503 187L502 184M503 189L503 192L504 192L503 189M504 194L504 197L505 197L504 194M505 199L505 202L506 202L505 199M506 204L506 207L507 207L506 204M507 209L507 212L508 212L507 209M508 214L508 217L509 217L508 214M509 219L509 222L510 222L509 219M510 224L510 227L511 227L510 224M511 229L511 232L512 232L511 229M34.3333 237.667L34.6667 238.333L34.3333 237.667M172.333 237.667L172.667 238.333L172.333 237.667M204 238L205 239L204 238M341 239L342 240L341 239M378.333 239.667L378.667 240.333L378.333 239.667M36 240L37 241L36 240M170 240L171 241L170 240M340 240L341 241L340 240M38 241L38 242L96 242L77 241L38 241M208 241L208 242L265 242L247 241L208 241M281 241L281 242L339 242L320 241L281 241M379 242L380 243L379 242M381 245L382 246L381 245M382 246L383 247L382 246M383 247L384 248L383 247M384 248L385 249L384 248M386 249L387 250L386 249M389 251L390 252L389 251M391 252L392 253L391 252M393 253L394 254L393 253M395 254L396 255L395 254M397 255L398 256L397 255M399 256L400 257L399 256M402 257L403 258L402 257M404 258L405 259L404 258M407 259L408 260L407 259M409.667 260.333L410.333 260.667L409.667 260.333M413 261L414 262L413 261M416.667 262.333L417.333 262.667L416.667 262.333M419.667 263.333L420.333 263.667L419.667 263.333M423.667 264.333L424.333 264.667L423.667 264.333M427.667 265.333L428.333 265.667L427.667 265.333M432.667 266.333L433.333 266.667L432.667 266.333M436.667 267.333L437.333 267.667L436.667 267.333M441 268L441 269L444 269L441 268M448 269L448 270L451 270L448 269M454 270L454 271L457 271L454 270M461 271L461 272L464 272L461 271z"/>
<path style="fill:#17667f; stroke:none;" d="M465 272C465 281.406 467.841 296.383 460.657 303.772C454.111 310.505 440.492 308 432 308L355 308L0 308C0 320.422 -3.87567 341.091 6.3287 350.467C15.6987 359.076 37.2276 355 49 355C49.0031 383.181 73.5628 402.49 101 397.679C113.962 395.406 125.021 386.692 130.88 375C133.308 370.154 133.599 356.817 139.059 355.318C154.672 351.03 176.772 355 193 355L311 355L355 355C360.406 355 368.837 353.414 373.852 355.603C378.372 357.577 378.852 370.473 381.12 375C387.102 386.938 398.004 395.021 411 397.715C438.352 403.383 462.997 382.479 463 355C475.118 355 492.431 358.117 502.96 350.891C510.785 345.521 511.986 335.767 512 327L512 276L465 272z"/>
<path style="fill:#1785b9; stroke:none;" d="M467 272L467 273L470 273L467 272z"/>
<path style="fill:#65b3d8; stroke:none;" d="M470 272L470 273L474 273L470 272z"/>
<path style="fill:#1785b9; stroke:none;" d="M477.667 273.333L478.333 273.667L477.667 273.333z"/>
<path style="fill:#65b3d8; stroke:none;" d="M479 273L479 274L483 274L479 273z"/>
<path style="fill:#1785b9; stroke:none;" d="M489 274L489 275L493 275L489 274z"/>
<path style="fill:#65b3d8; stroke:none;" d="M493 274L493 275L500 275L493 274z"/>
<path style="fill:#1785b9; stroke:none;" d="M507 275L507 276L511 276L507 275z"/>
<path style="fill:#65b3d8; stroke:none;" d="M511 275L512 276L511 275M375.667 279.333L376.333 279.667L375.667 279.333z"/>
<path style="fill:#b1e5fc; stroke:none;" d="M377.015 279.533C371.212 280.982 367.031 288.85 373.344 292.821C377.372 295.355 388.473 294.863 392.981 293.682C398.668 292.192 399.625 284.152 394.852 280.938C390.518 278.021 381.892 278.315 377.015 279.533z"/>
<path style="fill:#65b3d8; stroke:none;" d="M391 279L391 280L394 280L391 279M373 280L374 281L373 280M396 281L397 282L396 281M371 282L372 283L371 282M370 283L371 284L370 283M398 284L398 290L399 290L398 284M370 290L371 291L370 290M371 291L372 292L371 291M396 292L397 293L396 292M373 293L374 294L373 293M375 294L375 295L393 295L375 294z"/>
<path style="fill:#1785b9; stroke:none;" d="M511 335C508.867 359.251 480.327 355 463 355L463 356C474.681 356 491.458 358.95 501.999 352.91C507.772 349.603 513.78 341.819 511 335z"/>
<path style="fill:#65b3d8; stroke:none;" d="M91.6667 336.333L92.3333 336.667L91.6667 336.333M419.667 336.333L420.333 336.667L419.667 336.333M86 337L87 338L86 337z"/>
<path style="fill:#b1e5fc; stroke:none;" d="M87 337.533C64.8012 342.927 73.6766 378.003 96 372.941C119.532 367.606 110.52 331.818 87 337.533z"/>
<path style="fill:#65b3d8; stroke:none;" d="M97 337L98 338L97 337M414 337L415 338L414 337z"/>
<path style="fill:#b1e5fc; stroke:none;" d="M415 337.533C392.782 342.932 401.545 378.033 424 372.941C447.428 367.629 438.55 331.811 415 337.533z"/>
<path style="fill:#65b3d8; stroke:none;" d="M425 337L426 338L425 337z"/>
<path style="fill:#1785b9; stroke:none;" d="M0 338C0.561939 361.902 32.8525 356 49 356L49 355C37.1077 355 16.8533 358.834 7.18519 350.467C3.22239 347.037 2.19372 342.446 0 338M83 338L84 339L83 338z"/>
<path style="fill:#65b3d8; stroke:none;" d="M411 338L412 339L411 338M80 340L81 341L80 340M103 340L104 341L103 340M408 340L409 341L408 340z"/>
<path style="fill:#1785b9; stroke:none;" d="M431 340L432 341L431 340z"/>
<path style="fill:#65b3d8; stroke:none;" d="M79 341L80 342L79 341M104 341L105 342L104 341M407 341L408 342L407 341M432 341L433 342L432 341z"/>
<path style="fill:#fefeff; stroke:none;" d="M511 341C503.525 360.294 479.583 356 463 356C462.849 410.772 377.151 410.933 377 356L135 356C134.848 410.912 49.1512 410.793 49 356C33.1048 356 9.76212 360.879 1 344L0 344L0 512L512 512L512 392C512 377.7 516.506 354.121 511 341z"/>
<path style="fill:#65b3d8; stroke:none;" d="M78 342L79 343L78 342M105 342L106 343L105 342M406 342L407 343L406 342M433 342L434 343L433 342M77 343L78 344L77 343M106 343L107 344L106 343M405 343L406 344L405 343z"/>
<path style="fill:#1785b9; stroke:none;" d="M434 343L435 344L434 343z"/>
<path style="fill:#65b3d8; stroke:none;" d="M75 346L76 347L75 346M108 346L109 347L108 346M403 346L404 347L403 346z"/>
<path style="fill:#1785b9; stroke:none;" d="M74 348L75 349L74 348M109 348L110 349L109 348z"/>
<path style="fill:#65b3d8; stroke:none;" d="M402.333 348.667L402.667 349.333L402.333 348.667M74 349L75 350L74 349M109 349L110 350L109 349M437 349L438 350L437 349M73 352L73 358L74 358L73 352M110 352L110 358L111 358L110 352M401 352L401 359L402 359L401 352M438 353L438 357L439 357L438 353z"/>
<path style="fill:#1785b9; stroke:none;" d="M136 355L136 356L376 356L354 355L305 355L136 355M438 357L439 358L438 357z"/>
<path style="fill:#65b3d8; stroke:none;" d="M74.3333 360.667L74.6667 361.333L74.3333 360.667M437.333 360.667L437.667 361.333L437.333 360.667M109 361L110 362L109 361M402 361L403 362L402 361M75 363L76 364L75 363M108 363L109 364L108 363M403 363L404 364L403 363M436 363L437 364L436 363M76 365L77 366L76 365M107 365L108 366L107 365M404 365L405 366L404 365M435 365L436 366L435 365M77 366L78 367L77 366M106 366L107 367L106 366M405 366L406 367L405 366M434 366L435 367L434 366M80 369L81 370L80 369M103 369L104 370L103 369M431 369L432 370L431 369M81 370L82 371L81 370M102 370L103 371L102 370M409 370L410 371L409 370M430 370L431 371L430 370M83 371L84 372L83 371M100 371L101 372L100 371M411 371L412 372L411 371M428 371L429 372L428 371M85 372L86 373L85 372M98 372L99 373L98 372M413 372L414 373L413 372M426 372L427 373L426 372M88 373L88 374L91 374L88 373M93 373L93 374L96 374L93 373M416 373L416 374L419 374L416 373M421 373L421 374L424 374L421 373z"/>
</svg>
