<?xml version="1.0" standalone="no"?>
<!DOCTYPE svg PUBLIC "-//W3C//DTD SVG 20010904//EN"
 "http://www.w3.org/TR/2001/REC-SVG-20010904/DTD/svg10.dtd">
<svg version="1.0" xmlns="http://www.w3.org/2000/svg"
 width="621.000000pt" height="623.000000pt" viewBox="0 0 621.000000 623.000000"
 preserveAspectRatio="xMidYMid meet">

<g transform="translate(0.000000,623.000000) scale(0.100000,-0.100000)"
fill="#000000" stroke="none">
<path d="M3041 6151 c-16 -10 -29 -151 -30 -317 l-1 -82 -72 -6 c-40 -3 -109
-9 -154 -12 l-81 -6 -6 160 c-3 89 -11 170 -17 182 -10 18 -19 21 -78 18 -82
-4 -80 3 -81 -215 l-1 -163 -33 0 c-18 0 -42 -6 -52 -14 -29 -21 -12 -44 39
-51 l46 -7 0 -177 c0 -196 5 -213 61 -225 17 -3 49 -1 70 4 l39 11 0 194 0
195 157 0 156 0 -7 -262 c-3 -145 -9 -290 -12 -324 l-6 -61 -277 -6 c-429 -10
-1145 -70 -1211 -100 -31 -15 -43 -68 -33 -151 l8 -61 63 -3 62 -3 0 -444 c0
-262 4 -445 9 -445 5 0 50 15 99 34 435 166 1012 330 1294 366 72 10 106 9
193 -4 307 -45 774 -175 1208 -337 87 -33 159 -59 161 -59 2 0 5 193 8 429 3
333 6 432 17 444 7 9 32 17 59 19 38 2 49 8 60 28 16 31 9 157 -10 176 -36 37
-727 98 -1239 111 l-267 6 -6 51 c-3 28 -9 174 -13 324 l-6 272 156 0 157 0 0
-172 c0 -95 3 -183 6 -195 15 -54 134 -52 154 3 6 14 10 102 10 195 l0 169 34
0 c46 0 66 9 66 29 0 27 -21 41 -61 41 l-37 0 -4 180 c-2 121 -7 183 -15 191
-16 16 -117 16 -137 0 -12 -10 -16 -32 -16 -91 0 -42 -3 -119 -7 -170 l-6 -93
-96 7 c-53 4 -122 9 -153 13 l-58 6 -1 81 c0 133 -16 295 -29 311 -14 17 -57
20 -79 6z m-826 -1500 c67 -6 71 -7 88 -41 14 -27 17 -51 14 -109 -4 -66 -7
-77 -32 -98 l-27 -24 -244 3 c-294 4 -281 -2 -291 129 -9 138 5 145 302 146
66 0 152 -2 190 -6z m784 -26 c23 -22 25 -32 25 -110 0 -75 -3 -88 -22 -108
-22 -22 -27 -22 -278 -22 l-256 0 -19 24 c-25 31 -28 191 -3 215 29 30 94 35
344 30 181 -4 185 -4 209 -29z m693 20 c24 -9 38 -59 38 -132 0 -73 -19 -120
-53 -128 -12 -4 -129 -5 -260 -3 -229 3 -237 4 -259 25 -18 19 -22 34 -22 95
-1 87 8 123 31 134 34 15 160 22 334 19 96 -3 183 -7 191 -10z m709 -5 c23
-13 28 -28 35 -120 7 -78 7 -79 -24 -109 l-30 -31 -230 0 c-144 0 -241 4 -261
11 -41 14 -51 41 -51 134 0 100 15 118 107 127 89 8 432 -1 454 -12z"/>
<path d="M2965 4024 c-11 -3 -94 -21 -185 -40 -451 -95 -797 -198 -1065 -315
-169 -74 -538 -260 -612 -308 -43 -28 -65 -49 -69 -67 -10 -38 3 -331 21 -493
8 -74 16 -136 18 -137 1 -2 117 51 257 117 497 234 720 325 1037 423 632 195
743 199 1272 46 377 -109 678 -227 1181 -463 124 -57 235 -108 246 -111 18 -6
23 -2 28 26 11 61 26 252 33 408 8 199 3 212 -106 276 -114 68 -499 255 -641
312 -237 95 -533 182 -869 257 -235 52 -487 84 -546 69z"/>
<path d="M2795 3135 c-474 -123 -955 -305 -1420 -537 -186 -93 -255 -135 -255
-157 0 -49 99 -371 152 -496 99 -229 321 -671 356 -707 16 -16 20 -16 77 9
184 79 219 87 380 88 l150 0 153 -54 c183 -64 207 -64 359 -3 146 58 191 67
338 66 146 0 206 -13 337 -71 120 -52 176 -54 303 -8 159 58 238 75 351 75
121 0 212 -21 342 -80 51 -22 97 -38 102 -35 26 16 223 395 335 645 68 151
185 515 185 577 0 20 -130 90 -416 224 -412 194 -772 329 -1149 434 -203 56
-260 65 -420 65 -115 -1 -145 -5 -260 -35z"/>
<path d="M2000 1170 c-72 -13 -140 -35 -225 -76 -80 -39 -80 -39 -210 -39
-127 0 -132 1 -228 38 -55 21 -134 43 -177 49 -104 16 -205 -4 -343 -67 -143
-65 -155 -68 -297 -62 -105 4 -138 9 -211 35 -47 16 -106 33 -130 36 -41 7
-38 4 36 -29 247 -112 287 -125 390 -124 73 0 154 19 268 63 59 23 83 26 183
26 l115 0 112 -50 c140 -61 212 -81 303 -81 91 0 143 12 278 62 107 40 112 41
220 37 106 -3 115 -5 205 -45 175 -80 351 -93 495 -38 36 14 96 37 134 51 60
23 78 25 177 22 105 -3 115 -5 226 -50 97 -40 130 -49 205 -54 119 -9 220 12
355 73 101 46 106 47 204 48 94 0 106 -3 205 -42 141 -56 176 -64 272 -64 103
0 172 18 315 81 l112 50 111 0 c94 0 121 -4 183 -26 122 -45 199 -63 272 -63
104 -1 174 21 375 119 99 48 74 46 -96 -6 -206 -63 -302 -57 -490 31 -202 96
-317 97 -554 9 -92 -35 -99 -36 -205 -32 -105 4 -115 6 -215 50 -148 65 -179
71 -328 66 -111 -5 -136 -9 -202 -36 -112 -45 -207 -72 -252 -72 -53 0 -139
23 -229 61 -120 50 -165 59 -293 59 l-119 0 -140 -56 -141 -56 -116 4 c-106 4
-120 6 -177 36 -35 18 -87 38 -115 46 -70 18 -202 26 -258 16z"/>
<path d="M2030 753 c-14 -3 -85 -27 -158 -54 -121 -45 -139 -49 -220 -49 -48
0 -110 6 -137 14 -257 71 -246 69 -350 64 -90 -5 -114 -10 -240 -58 -122 -46
-152 -54 -230 -58 -80 -4 -105 0 -226 32 -74 20 -144 36 -155 36 -10 0 31 -21
91 -46 187 -77 181 -76 315 -77 117 -2 132 1 225 32 172 57 287 52 463 -18
180 -73 304 -74 508 -5 106 35 113 36 219 31 62 -3 128 -11 150 -20 201 -76
181 -72 320 -71 127 0 133 1 249 42 111 39 126 42 223 42 96 0 114 -3 226 -41
100 -34 140 -42 222 -46 112 -6 175 6 310 59 75 30 88 32 205 31 118 0 131 -2
235 -38 96 -33 122 -38 205 -38 106 -1 170 13 319 70 88 33 105 36 206 37 100
1 119 -2 210 -33 183 -61 307 -54 508 30 71 30 121 55 112 57 -8 2 -64 -11
-123 -30 -97 -30 -119 -33 -227 -33 -117 1 -122 2 -221 42 -164 67 -202 76
-323 71 -88 -4 -125 -11 -221 -43 -95 -31 -130 -38 -200 -38 -75 -1 -97 4
-181 36 -149 57 -212 70 -329 70 -93 0 -116 -4 -195 -32 -143 -52 -152 -53
-279 -49 -110 4 -127 7 -188 36 -86 41 -186 56 -318 49 -104 -5 -125 -11 -277
-69 -92 -35 -211 -32 -333 9 -169 57 -289 74 -390 56z"/>
<path d="M2995 379 c-22 -5 -96 -28 -165 -50 -111 -37 -133 -41 -195 -36 -38
2 -113 18 -165 35 -196 64 -296 62 -494 -10 -147 -54 -208 -55 -361 -7 -102
31 -120 34 -235 33 -113 -1 -131 -3 -190 -28 -189 -80 -285 -90 -445 -43 -94
27 -173 43 -165 34 10 -11 209 -86 268 -101 96 -25 172 -21 313 20 110 31 134
35 209 31 59 -3 108 -13 160 -32 213 -78 313 -83 500 -24 87 28 120 33 195 33
81 0 100 -4 185 -39 90 -36 103 -38 226 -42 l131 -5 109 39 c97 34 119 38 204
38 83 0 107 -5 190 -35 91 -33 100 -35 235 -35 140 0 140 0 240 40 91 36 108
40 190 39 74 0 112 -7 213 -37 189 -57 253 -53 477 27 134 48 191 48 377 0
123 -32 152 -36 222 -31 79 4 195 40 319 98 l42 19 -40 -6 c-22 -3 -80 -17
-129 -31 -76 -22 -103 -25 -195 -21 -95 4 -117 9 -214 47 -96 37 -121 42 -215
47 -101 5 -114 4 -231 -30 -174 -50 -230 -49 -386 6 -117 42 -123 43 -250 43
-125 0 -134 -1 -236 -37 -80 -29 -122 -38 -170 -38 -62 0 -87 6 -277 64 -96
30 -190 39 -247 25z"/>
</g>
</svg>
