<svg width="448" height="512" viewBox="0 0 448 512" fill="none" xmlns="http://www.w3.org/2000/svg">
<g clip-path="url(#clip0_184_35)">
<path d="M365.738 439.491L351.169 441.776L361.597 452.203L407.597 498.203C408.719 499.325 408.898 500.725 408.316 502.041C407.754 503.311 406.439 504.5 404.1 504.5H365.3C358.789 504.5 352.497 501.89 347.903 497.297L293.303 442.697L291.107 440.5H288H160H156.893L154.697 442.697L100.11 497.284C100.107 497.287 100.103 497.29 100.1 497.293C95.4572 501.908 89.2156 504.5 82.75 504.5H43.04C39.7037 504.5 38.1345 500.473 40.4006 498.226L40.4114 498.215L40.4221 498.204L86.4421 452.204L96.8772 441.774L82.3008 439.49C39.9684 432.859 7.5 395.384 7.5 352V96C7.5 47.1221 47.1221 7.5 96 7.5H352C400.859 7.5 440.5 47.1232 440.5 96V352C440.5 395.384 408.011 432.859 365.738 439.491ZM56.5 224C56.5 245.847 74.1924 263.5 96 263.5H176C197.842 263.5 215.5 245.842 215.5 224V128C215.5 106.158 197.842 88.5 176 88.5H96C74.1924 88.5 56.5 106.153 56.5 128V224ZM272 88.5C250.158 88.5 232.5 106.158 232.5 128V224C232.5 245.842 250.158 263.5 272 263.5H352C373.842 263.5 391.5 245.842 391.5 224V128C391.5 106.158 373.842 88.5 352 88.5H272ZM96 312.5C74.1924 312.5 56.5 330.153 56.5 352C56.5 373.847 74.1924 391.5 96 391.5C117.842 391.5 135.5 373.842 135.5 352C135.5 330.158 117.842 312.5 96 312.5ZM352 391.5C373.842 391.5 391.5 373.842 391.5 352C391.5 330.158 373.842 312.5 352 312.5C330.158 312.5 312.5 330.158 312.5 352C312.5 373.842 330.158 391.5 352 391.5Z" fill="#C80101" stroke="black" stroke-width="15"/>
</g>
<defs>
<clipPath id="clip0_184_35">
<rect width="448" height="512" fill="white"/>
</clipPath>
</defs>
</svg>
