<?xml version="1.0" standalone="yes"?>
<svg xmlns="http://www.w3.org/2000/svg" width="500" height="500">
<path style="fill:#efe2ca; stroke:none;" d="M180 20L180 21L185 21L180 20z"/>
<path style="fill:#bd9f7b; stroke:none;" d="M185 20L185 21L315 21C304.734 16.6924 287.158 20 276 20L185 20z"/>
<path style="fill:#efe2ca; stroke:none;" d="M315 20L315 21L320 21L315 20M175.667 21.3333L176.333 21.6667L175.667 21.3333z"/>
<path style="fill:#bd9f7b; stroke:none;" d="M177 21L177 22L180 22L177 21z"/>
<path style="fill:#81590b; stroke:none;" d="M180 21L180 22L184 22L180 21z"/>
<path style="fill:#9f0101; stroke:none;" d="M184 21.4252C159.845 24.7131 148.346 38.8461 133.8 57C125.027 67.9492 111.465 79.6558 106.7 93C101.904 106.429 105 124.854 105 139L105 237L105 290C105 302.109 104.237 312.979 112.289 322.985C126.239 340.318 158.305 334 178 334L304 334C324.673 334 347.583 336.776 368 333.561C394.259 329.426 395 306.426 395 285L395 155C395 136.561 399.374 111.573 393.64 94C389.949 82.6846 379.405 73.02 371.919 64C361.445 51.3798 352.025 34.8977 337 27.2731C320.178 18.7365 300.244 21 282 21C250.161 21 215.53 17.1332 184 21.4252z"/>
<path style="fill:#81590b; stroke:none;" d="M316 21L316 22L320 22L316 21z"/>
<path style="fill:#bd9f7b; stroke:none;" d="M320 21L320 22L323 22L320 21z"/>
<path style="fill:#efe2ca; stroke:none;" d="M323.667 21.3333L324.333 21.6667L323.667 21.3333M172 22L173 23L172 22z"/>
<path style="fill:#bd9f7b; stroke:none;" d="M173.667 22.3333L174.333 22.6667L173.667 22.3333z"/>
<path style="fill:#81590b; stroke:none;" d="M175.667 22.3333L176.333 22.6667L175.667 22.3333M323.667 22.3333L324.333 22.6667L323.667 22.3333z"/>
<path style="fill:#bd9f7b; stroke:none;" d="M325.667 22.3333L326.333 22.6667L325.667 22.3333z"/>
<path style="fill:#efe2ca; stroke:none;" d="M327 22L328 23L327 22M169 23L170 24L169 23z"/>
<path style="fill:#bd9f7b; stroke:none;" d="M170 23L171 24L170 23z"/>
<path style="fill:#81590b; stroke:none;" d="M171.667 23.3333L172.333 23.6667L171.667 23.3333M327.667 23.3333L328.333 23.6667L327.667 23.3333z"/>
<path style="fill:#bd9f7b; stroke:none;" d="M329 23L330 24L329 23z"/>
<path style="fill:#efe2ca; stroke:none;" d="M330 23L331 24L330 23M166 24L167 25L166 24z"/>
<path style="fill:#bd9f7b; stroke:none;" d="M167 24L168 25L167 24z"/>
<path style="fill:#81590b; stroke:none;" d="M168.667 24.3333L169.333 24.6667L168.667 24.3333M330.667 24.3333L331.333 24.6667L330.667 24.3333z"/>
<path style="fill:#bd9f7b; stroke:none;" d="M332 24L333 25L332 24z"/>
<path style="fill:#efe2ca; stroke:none;" d="M333 24L334 25L333 24M164 25L165 26L164 25z"/>
<path style="fill:#bd9f7b; stroke:none;" d="M165 25L166 26L165 25z"/>
<path style="fill:#81590b; stroke:none;" d="M166 25L167 26L166 25M333 25L334 26L333 25z"/>
<path style="fill:#bd9f7b; stroke:none;" d="M334 25L335 26L334 25z"/>
<path style="fill:#efe2ca; stroke:none;" d="M335 25L336 26L335 25M162 26L163 27L162 26z"/>
<path style="fill:#bd9f7b; stroke:none;" d="M163 26L164 27L163 26z"/>
<path style="fill:#81590b; stroke:none;" d="M164 26L165 27L164 26M335 26L336 27L335 26z"/>
<path style="fill:#bd9f7b; stroke:none;" d="M336 26L337 27L336 26z"/>
<path style="fill:#efe2ca; stroke:none;" d="M337 26L338 27L337 26z"/>
<path style="fill:#bd9f7b; stroke:none;" d="M161 27L162 28L161 27z"/>
<path style="fill:#81590b; stroke:none;" d="M162 27L163 28L162 27M337 27L338 28L337 27z"/>
<path style="fill:#bd9f7b; stroke:none;" d="M338 27L339 28L338 27z"/>
<path style="fill:#efe2ca; stroke:none;" d="M159 28L160 29L159 28z"/>
<path style="fill:#81590b; stroke:none;" d="M160 28L161 29L160 28M339 28L340 29L339 28z"/>
<path style="fill:#efe2ca; stroke:none;" d="M340 28L341 29L340 28z"/>
<path style="fill:#bd9f7b; stroke:none;" d="M158 29L159 30L158 29M341 29L342 30L341 29z"/>
<path style="fill:#efe2ca; stroke:none;" d="M342 29L344 31L342 29M156 30L157 31L156 30z"/>
<path style="fill:#81590b; stroke:none;" d="M157 30L158 31L157 30M342 30L343 31L342 30z"/>
<path style="fill:#bd9f7b; stroke:none;" d="M155 31L156 32L155 31z"/>
<path style="fill:#81590b; stroke:none;" d="M156 31L157 32L156 31M343 31L344 32L343 31z"/>
<path style="fill:#bd9f7b; stroke:none;" d="M344 31L345 32L344 31M154 32L155 33L154 32M345 32L346 33L345 32z"/>
<path style="fill:#efe2ca; stroke:none;" d="M152 33L148 38L152 33z"/>
<path style="fill:#bd9f7b; stroke:none;" d="M153 33L154 34L153 33M346 33L347 34L346 33z"/>
<path style="fill:#efe2ca; stroke:none;" d="M347 33L352 38L347 33z"/>
<path style="fill:#81590b; stroke:none;" d="M152 34L153 35L152 34M347 34L348 35L347 34M151 35L152 36L151 35M348 35L349 36L348 35M150 36L151 37L150 36M349 36L350 37L349 36M149 37L150 38L149 37M350 37L351 38L350 37z"/>
<path style="fill:#bd9f7b; stroke:none;" d="M148 38L149 39L148 38M351 38L352 39L351 38M147 39L148 40L147 39M352 39L353 40L352 39M146 40L147 41L146 40M353 40L354 41L353 40z"/>
<path style="fill:#efe2ca; stroke:none;" d="M145 41L143 44L145 41z"/>
<path style="fill:#81590b; stroke:none;" d="M146 41L147 42L146 41M222 41L222 42L226 42L222 41M274 41L274 42L278 42L274 41M353 41L355 43L353 41z"/>
<path style="fill:#efe2ca; stroke:none;" d="M354 41L355 42L354 41z"/>
<path style="fill:#81590b; stroke:none;" d="M145 42L146 43L145 42M218 42L219 43L218 42z"/>
<path style="fill:#bd9f7b; stroke:none;" d="M219 42L220 43L219 42z"/>
<path style="fill:#efe2ca; stroke:none;" d="M220 42.5579C200.437 47.6606 209.718 77.4016 229 71.3472C247.001 65.6953 238.028 37.8555 220 42.5579z"/>
<path style="fill:#bd9f7b; stroke:none;" d="M228 42L229 43L228 42z"/>
<path style="fill:#81590b; stroke:none;" d="M229 42L230 43L229 42M270 42L271 43L270 42z"/>
<path style="fill:#bd9f7b; stroke:none;" d="M271 42L272 43L271 42z"/>
<path style="fill:#efe2ca; stroke:none;" d="M262 64L264 64C262.809 67.5734 267.452 70.8175 271 72C278.829 74.6098 289.122 69.5108 291 62C294.711 47.155 277.583 35.5231 266 45C258.671 50.9968 263.015 59.9391 262 64z"/>
<path style="fill:#bd9f7b; stroke:none;" d="M280 42L281 43L280 42z"/>
<path style="fill:#81590b; stroke:none;" d="M281 42L282 43L281 42z"/>
<path style="fill:#efe2ca; stroke:none;" d="M355 42L357 44L355 42z"/>
<path style="fill:#bd9f7b; stroke:none;" d="M144 43L145 44L144 43z"/>
<path style="fill:#81590b; stroke:none;" d="M216 43L217 44L216 43M231 43L232 44L231 43M268 43L269 44L268 43M283 43L284 44L283 43z"/>
<path style="fill:#bd9f7b; stroke:none;" d="M355 43L356 44L355 43M143 44L144 45L143 44M215 44L216 45L215 44M232 44L233 45L232 44M267 44L268 45L267 44M284 44L285 45L284 44M356 44L357 45L356 44M142 45L143 46L142 45z"/>
<path style="fill:#81590b; stroke:none;" d="M213 45L214 46L213 45z"/>
<path style="fill:#0b0501; stroke:none;" d="M218.015 45.7423C202.626 51.8016 214.518 75.2549 229.985 69.3966C245.637 63.4683 233.699 39.5671 218.015 45.7423z"/>
<path style="fill:#81590b; stroke:none;" d="M234 45L235 46L234 45M265 45L266 46L265 45z"/>
<path style="fill:#0b0501; stroke:none;" d="M270.043 45.7423C254.953 51.8576 266.736 75.1697 281.996 69.2577C297.687 63.1789 285.656 39.4149 270.043 45.7423z"/>
<path style="fill:#81590b; stroke:none;" d="M286 45L287 46L286 45z"/>
<path style="fill:#bd9f7b; stroke:none;" d="M357 45L358 46L357 45z"/>
<path style="fill:#efe2ca; stroke:none;" d="M141 46L139 49L141 46z"/>
<path style="fill:#81590b; stroke:none;" d="M142 46L143 47L142 46M212 46L213 47L212 46M235 46L236 47L235 46M264 46L265 47L264 46M287 46L288 47L287 46M357 46L359 48L357 46z"/>
<path style="fill:#efe2ca; stroke:none;" d="M358 46L359 47L358 46z"/>
<path style="fill:#81590b; stroke:none;" d="M141 47L142 48L141 47M211 47L212 48L211 47M236 47L237 48L236 47M263 47L264 48L263 47z"/>
<path style="fill:#efe2ca; stroke:none;" d="M359 47L361 49L359 47z"/>
<path style="fill:#bd9f7b; stroke:none;" d="M140 48L141 49L140 48M236 48L237 49L236 48M263 48L264 49L263 48M359 48L360 49L359 48M139 49L140 50L139 49M210 49L211 50L210 49z"/>
<path style="fill:#81590b; stroke:none;" d="M237 49L238 50L237 49M262 49L263 50L262 49z"/>
<path style="fill:#bd9f7b; stroke:none;" d="M289 49L290 50L289 49M360 49L361 50L360 49M138 50L139 51L138 50M237 50L238 51L237 50M361 50L362 51L361 50z"/>
<path style="fill:#efe2ca; stroke:none;" d="M137 51L135 54L137 51z"/>
<path style="fill:#81590b; stroke:none;" d="M138 51L139 52L138 51z"/>
<path style="fill:#bd9f7b; stroke:none;" d="M209 51L210 52L209 51z"/>
<path style="fill:#81590b; stroke:none;" d="M238 51L239 52L238 51M261 51L262 52L261 51z"/>
<path style="fill:#bd9f7b; stroke:none;" d="M290 51L291 52L290 51z"/>
<path style="fill:#81590b; stroke:none;" d="M361 51L363 53L361 51z"/>
<path style="fill:#efe2ca; stroke:none;" d="M362 51L363 52L362 51z"/>
<path style="fill:#81590b; stroke:none;" d="M137 52L138 53L137 52z"/>
<path style="fill:#bd9f7b; stroke:none;" d="M238 52L239 53L238 52M261 52L262 53L261 52z"/>
<path style="fill:#efe2ca; stroke:none;" d="M363 52L365 54L363 52z"/>
<path style="fill:#bd9f7b; stroke:none;" d="M136 53L137 54L136 53M363 53L364 54L363 53M135 54L136 55L135 54z"/>
<path style="fill:#81590b; stroke:none;" d="M208 54L209 55L208 54M239.333 54.6667L239.667 55.3333L239.333 54.6667M260.333 54.6667L260.667 55.3333L260.333 54.6667M291 54L292 55L291 54z"/>
<path style="fill:#bd9f7b; stroke:none;" d="M364 54L365 55L364 54z"/>
<path style="fill:#efe2ca; stroke:none;" d="M134 55L132 58L134 55z"/>
<path style="fill:#bd9f7b; stroke:none;" d="M208 55L208 60L209 60L208 55M291 55L291 60L292 60L291 55z"/>
<path style="fill:#efe2ca; stroke:none;" d="M365 55L369 59L365 55z"/>
<path style="fill:#81590b; stroke:none;" d="M134 56L135 57L134 56z"/>
<path style="fill:#bd9f7b; stroke:none;" d="M239.333 56.6667L239.667 57.3333L239.333 56.6667M260.333 56.6667L260.667 57.3333L260.333 56.6667z"/>
<path style="fill:#81590b; stroke:none;" d="M365 56L366 57L365 56M133 57L134 58L133 57M366 57L367 58L366 57z"/>
<path style="fill:#bd9f7b; stroke:none;" d="M132 58L133 59L132 58z"/>
<path style="fill:#81590b; stroke:none;" d="M239 58L239 61L240 61L239 58M260 58L260 61L261 61L260 58z"/>
<path style="fill:#bd9f7b; stroke:none;" d="M367 58L368 59L367 58M131 59L132 60L131 59M368 59L369 60L368 59z"/>
<path style="fill:#efe2ca; stroke:none;" d="M130 60L128 63L130 60z"/>
<path style="fill:#81590b; stroke:none;" d="M208 60L209 61L208 60M291 60L292 61L291 60z"/>
<path style="fill:#efe2ca; stroke:none;" d="M369 60L372 63L369 60z"/>
<path style="fill:#81590b; stroke:none;" d="M130 61L131 62L130 61M369 61L370 62L369 61M129 62L130 63L129 62z"/>
<path style="fill:#bd9f7b; stroke:none;" d="M209 62L210 63L209 62M238 62L239 63L238 62M261 62L262 63L261 62z"/>
<path style="fill:#0b0501; stroke:none;" d="M262 62L263 63L262 62z"/>
<path style="fill:#bd9f7b; stroke:none;" d="M290 62L291 63L290 62z"/>
<path style="fill:#81590b; stroke:none;" d="M370 62L371 63L370 62z"/>
<path style="fill:#bd9f7b; stroke:none;" d="M128 63L129 64L128 63z"/>
<path style="fill:#81590b; stroke:none;" d="M209 63L210 64L209 63M238 63L239 64L238 63M261 63L262 64L261 63M290 63L291 64L290 63z"/>
<path style="fill:#bd9f7b; stroke:none;" d="M371 63L372 64L371 63M127 64L128 65L127 64M237 64L238 65L237 64M262 64L263 65L262 64z"/>
<path style="fill:#0b0501; stroke:none;" d="M263 64L264 65L263 64z"/>
<path style="fill:#bd9f7b; stroke:none;" d="M372 64L373 65L372 64M126 65L127 66L126 65z"/>
<path style="fill:#81590b; stroke:none;" d="M210 65L211 66L210 65M237 65L238 66L237 65M262 65L263 66L262 65M289 65L290 66L289 65z"/>
<path style="fill:#bd9f7b; stroke:none;" d="M373 65L374 66L373 65z"/>
<path style="fill:#efe2ca; stroke:none;" d="M125 66L124 68L125 66z"/>
<path style="fill:#bd9f7b; stroke:none;" d="M211 66L212 67L211 66M236 66L237 67L236 66M263 66L264 67L263 66M288 66L289 67L288 66z"/>
<path style="fill:#efe2ca; stroke:none;" d="M374 66L376 68L374 66z"/>
<path style="fill:#81590b; stroke:none;" d="M125 67L126 68L125 67z"/>
<path style="fill:#bd9f7b; stroke:none;" d="M212 67L214 69L212 67z"/>
<path style="fill:#0b0501; stroke:none;" d="M213 67L214 68L213 67z"/>
<path style="fill:#bd9f7b; stroke:none;" d="M235 67L236 68L235 67M264 67L265 68L264 67M287 67L288 68L287 67z"/>
<path style="fill:#81590b; stroke:none;" d="M374 67L375 68L374 67M124 68L125 69L124 68z"/>
<path style="fill:#bd9f7b; stroke:none;" d="M234 68L235 69L234 68M265 68L266 69L265 68M286 68L287 69L286 68z"/>
<path style="fill:#81590b; stroke:none;" d="M375 68L376 69L375 68z"/>
<path style="fill:#bd9f7b; stroke:none;" d="M123 69L124 70L123 69M214 69L215 70L214 69M233 69L234 70L233 69M266 69L267 70L266 69M285 69L286 70L285 69M376 69L377 70L376 69M122 70L123 71L122 70z"/>
<path style="fill:#81590b; stroke:none;" d="M215 70L216 71L215 70z"/>
<path style="fill:#bd9f7b; stroke:none;" d="M216 70L217 71L216 70M231 70L232 71L231 70z"/>
<path style="fill:#81590b; stroke:none;" d="M232 70L233 71L232 70M267 70L268 71L267 70z"/>
<path style="fill:#bd9f7b; stroke:none;" d="M268 70L269 71L268 70z"/>
<path style="fill:#81590b; stroke:none;" d="M284 70L285 71L284 70z"/>
<path style="fill:#bd9f7b; stroke:none;" d="M377 70L378 71L377 70z"/>
<path style="fill:#efe2ca; stroke:none;" d="M121 71L120 73L121 71z"/>
<path style="fill:#81590b; stroke:none;" d="M217 71L218 72L217 71z"/>
<path style="fill:#bd9f7b; stroke:none;" d="M218 71L219 72L218 71M229 71L230 72L229 71z"/>
<path style="fill:#81590b; stroke:none;" d="M230 71L231 72L230 71M269 71L270 72L269 71z"/>
<path style="fill:#bd9f7b; stroke:none;" d="M270 71L271 72L270 71M281 71L282 72L281 71z"/>
<path style="fill:#81590b; stroke:none;" d="M282 71L283 72L282 71z"/>
<path style="fill:#efe2ca; stroke:none;" d="M378 71L380 73L378 71z"/>
<path style="fill:#81590b; stroke:none;" d="M121 72L122 73L121 72M219.667 72.3333L220.333 72.6667L219.667 72.3333z"/>
<path style="fill:#bd9f7b; stroke:none;" d="M221 72L221 73L227 73L221 72z"/>
<path style="fill:#81590b; stroke:none;" d="M227.667 72.3333L228.333 72.6667L227.667 72.3333M271.667 72.3333L272.333 72.6667L271.667 72.3333z"/>
<path style="fill:#bd9f7b; stroke:none;" d="M273 72L273 73L279 73L273 72z"/>
<path style="fill:#81590b; stroke:none;" d="M279.667 72.3333L280.333 72.6667L279.667 72.3333M378 72L379 73L378 72M120 73L121 74L120 73M379 73L380 74L379 73z"/>
<path style="fill:#bd9f7b; stroke:none;" d="M119 74L120 75L119 74M380 74L381 75L380 74M118 75L119 76L118 75M381 75L382 76L381 75z"/>
<path style="fill:#efe2ca; stroke:none;" d="M117 76L118 77L117 76M382 76L383 77L382 76z"/>
<path style="fill:#81590b; stroke:none;" d="M117 77L118 78L117 77M382 77L383 78L382 77z"/>
<path style="fill:#bd9f7b; stroke:none;" d="M116 78L117 79L116 78M383 78L384 79L383 78z"/>
<path style="fill:#efe2ca; stroke:none;" d="M115 79L116 80L115 79M384 79L385 80L384 79M114 80L115 81L114 80M385 80L386 81L385 80M113 81L114 82L113 81z"/>
<path style="fill:#bd9f7b; stroke:none;" d="M386 81L387 82L386 81z"/>
<path style="fill:#efe2ca; stroke:none;" d="M112 82L113 83L112 82M387 82L388 83L387 82M111 83L109 86L111 83M388 83L391 86L388 83z"/>
<path style="fill:#81590b; stroke:none;" d="M111 84L112 85L111 84M388 84L389 85L388 84M110 85L111 86L110 85M389 85L390 86L389 85z"/>
<path style="fill:#bd9f7b; stroke:none;" d="M109 86L110 87L109 86M390 86L391 87L390 86z"/>
<path style="fill:#efe2ca; stroke:none;" d="M108 87L107 89L108 87M391 87L393 89L391 87z"/>
<path style="fill:#81590b; stroke:none;" d="M108 88L109 89L108 88M391 88L392 89L391 88z"/>
<path style="fill:#bd9f7b; stroke:none;" d="M107 89L108 90L107 89M392 89L393 90L392 89z"/>
<path style="fill:#efe2ca; stroke:none;" d="M106 90L107 91L106 90z"/>
<path style="fill:#81590b; stroke:none;" d="M107 90L108 91L107 90M392 90L393 91L392 90z"/>
<path style="fill:#efe2ca; stroke:none;" d="M393 90L394 91L393 90z"/>
<path style="fill:#bd9f7b; stroke:none;" d="M106.333 91.6667L106.667 92.3333L106.333 91.6667M393.333 91.6667L393.667 92.3333L393.333 91.6667z"/>
<path style="fill:#efe2ca; stroke:none;" d="M105 93L106 94L105 93z"/>
<path style="fill:#81590b; stroke:none;" d="M106 93L107 94L106 93M393 93L394 94L393 93z"/>
<path style="fill:#efe2ca; stroke:none;" d="M394 93L395 94L394 93z"/>
<path style="fill:#bd9f7b; stroke:none;" d="M105.333 94.6667L105.667 95.3333L105.333 94.6667M394.333 94.6667L394.667 95.3333L394.333 94.6667z"/>
<path style="fill:#efe2ca; stroke:none;" d="M104.333 96.6667L104.667 97.3333L104.333 96.6667z"/>
<path style="fill:#81590b; stroke:none;" d="M105 96L106 97L105 96M394 96L395 97L394 96z"/>
<path style="fill:#efe2ca; stroke:none;" d="M395.333 96.6667L395.667 97.3333L395.333 96.6667z"/>
<path style="fill:#bd9f7b; stroke:none;" d="M104 98L104 101L105 101L104 98M395 98L395 101L396 101L395 98z"/>
<path style="fill:#efe2ca; stroke:none;" d="M103 101L103 305L104 305L104 162L104 121L103 101z"/>
<path style="fill:#81590b; stroke:none;" d="M104 101L104 305L105 305L105 162L105 121L104 101M395 101L395 305L396 305L396 162L396 121L395 101z"/>
<path style="fill:#efe2ca; stroke:none;" d="M396 101L396 305L397 305L397 162L397 121L396 101z"/>
<path style="fill:#81590b; stroke:none;" d="M143.667 114.333L144.333 114.667L143.667 114.333z"/>
<path style="fill:#bd9f7b; stroke:none;" d="M145 114L145 115L239 115L239 218C241.903 211.081 240 200.48 240 193L240 139C240 134.044 242.554 118.321 238.397 115.028C233.85 111.427 219.657 114 214 114L145 114z"/>
<path style="fill:#81590b; stroke:none;" d="M239 114L240 115L239 114M260 114L261 115L260 114z"/>
<path style="fill:#bd9f7b; stroke:none;" d="M260 218L261 218L261 115L355 115C348.564 112.299 338.951 114 332 114L283 114C278.33 114 264.163 111.645 261.028 115.603C257.094 120.57 260 136.777 260 143L260 218z"/>
<path style="fill:#81590b; stroke:none;" d="M355.667 114.333L356.333 114.667L355.667 114.333z"/>
<path style="fill:#bd9f7b; stroke:none;" d="M141 115L142 116L141 115z"/>
<path style="fill:#efe2ca; stroke:none;" d="M138 126L139 126L141 117L174 116L236 116L236 117L216 117L216 118C231.989 118 236.644 118.744 237 136L238 136L239 116C232.081 113.097 221.48 115 214 115L158 115C147.809 115 137.595 112.995 138 126M261 115L261 116L262 129L264 129C264.036 116.344 271.501 118 282 118L282 117L267 117L267 116L358 116L358 117L344 117L344 118C348.459 118 354.881 116.774 358.277 120.318C362.995 125.242 362 133.772 362 140C362 156.461 363.389 173.615 361.83 190C361.027 198.439 364.492 213.907 355 217L355 218C359.3 217.129 361.801 215.563 362 211L364 212L363 175L364 121L363 121L363 123C360.046 111.921 347.194 115 338 115L261 115z"/>
<path style="fill:#bd9f7b; stroke:none;" d="M358 115L359 116L358 115z"/>
<path style="fill:#81590b; stroke:none;" d="M139 116L140 117L139 116z"/>
<path style="fill:white; stroke:none;" d="M141 117L139 126L138 126L138 120L137 120C131.73 148.386 136 181.123 136 210L137 210L137 179L138 179L139 213L138 213L138 211L137 211C141.627 220.386 154.202 218 163 218L239 218L239 142C239 135.864 241.762 120.161 237 116L238 136L237 136L234.258 119.028L216 118L216 117L236 117L209 116L165 116L141 117M261 116L261 218L333 218C339.987 218 354.116 220.621 359.593 215.297C363.443 211.555 361.929 192.615 361.996 187C362.19 170.672 362 154.329 362 138C362 132.407 362.987 123.745 358.277 119.603C354.956 116.683 348.113 118 344 118L344 117L358 117L358 116L267 116L267 117L282 117L282 118C270.969 118 264.009 115.985 264 129L262 129L263 116L261 116z"/>
<path style="fill:#81590b; stroke:none;" d="M360 116L361 117L360 116M138 117L139 118L138 117z"/>
<path style="fill:#efe2ca; stroke:none;" d="M143 117L143 118L150 118L143 117z"/>
<path style="fill:#0b0501; stroke:none;" d="M358 117L358 118L362 120L358 117z"/>
<path style="fill:#81590b; stroke:none;" d="M361 117L362 118L361 117M137 118L138 119L137 118M362 118L363 119L362 118z"/>
<path style="fill:#0b0501; stroke:none;" d="M138.667 119.333L139.333 119.667L138.667 119.333z"/>
<path style="fill:#bd9f7b; stroke:none;" d="M136 120L137 121L136 120z"/>
<path style="fill:#0b0501; stroke:none;" d="M362 120L362 123L363 123L362 120z"/>
<path style="fill:#bd9f7b; stroke:none;" d="M363 120L364 121L363 120z"/>
<path style="fill:#efe2ca; stroke:none;" d="M136.333 121.667L136.667 122.333L136.333 121.667z"/>
<path style="fill:#81590b; stroke:none;" d="M135.333 122.667L135.667 123.333L135.333 122.667M364.333 122.667L364.667 123.333L364.333 122.667z"/>
<path style="fill:#0b0501; stroke:none;" d="M363 123L363 211L364 211L364 150L363 123z"/>
<path style="fill:#bd9f7b; stroke:none;" d="M135 124L135 209L136 209L136 150L135 124M364 124L364 209L365 209L365 150L364 124z"/>
<path style="fill:#efe2ca; stroke:none;" d="M137 129L137 167L138 167L138.039 142L137 129M137 179L136 212L138 213L139 213L137 179M263 203L263 210L264 210L263 203z"/>
<path style="fill:#81590b; stroke:none;" d="M135.333 209.667L135.667 210.333L135.333 209.667M364.333 209.667L364.667 210.333L364.333 209.667z"/>
<path style="fill:#0b0501; stroke:none;" d="M362.333 211.667L362.667 212.333L362.333 211.667z"/>
<path style="fill:#bd9f7b; stroke:none;" d="M136 212L137 213L136 212M363 212L364 213L363 212z"/>
<path style="fill:#efe2ca; stroke:none;" d="M137 213L145 218L145 217L137 213M139 213L140 214L139 213z"/>
<path style="fill:#81590b; stroke:none;" d="M363 213L364 214L363 213z"/>
<path style="fill:#bd9f7b; stroke:none;" d="M137 214L138 215L137 214M362 214L363 215L362 214M138 215L139 216L138 215z"/>
<path style="fill:#efe2ca; stroke:none;" d="M235 217L238 217L237 215L235 217M263 215L263 217L265 217L263 215z"/>
<path style="fill:#bd9f7b; stroke:none;" d="M361 215L362 216L361 215M139 216L140 217L139 216M360 216L361 217L360 216z"/>
<path style="fill:#81590b; stroke:none;" d="M140 217L141 218L140 217z"/>
<path style="fill:#bd9f7b; stroke:none;" d="M141 217L142 218L141 217M358 217L359 218L358 217z"/>
<path style="fill:#81590b; stroke:none;" d="M359 217L360 218L359 217M142 218L143 219L142 218z"/>
<path style="fill:#bd9f7b; stroke:none;" d="M143 218L143 219L146 219L143 218z"/>
<path style="fill:#efe2ca; stroke:none;" d="M146 218L146 219L239 219L210 218L146 218z"/>
<path style="fill:#81590b; stroke:none;" d="M239 218L240 219L239 218M260 218L261 219L260 218z"/>
<path style="fill:#efe2ca; stroke:none;" d="M261 218L261 219L354 219L325 218L261 218z"/>
<path style="fill:#bd9f7b; stroke:none;" d="M354 218L354 219L357 219L354 218z"/>
<path style="fill:#81590b; stroke:none;" d="M357 218L358 219L357 218M160.667 229.333L161.333 229.667L160.667 229.333z"/>
<path style="fill:#bd9f7b; stroke:none;" d="M162 229L162 230L172 230L162 229z"/>
<path style="fill:#81590b; stroke:none;" d="M172.667 229.333L173.333 229.667L172.667 229.333M326.667 229.333L327.333 229.667L326.667 229.333z"/>
<path style="fill:#bd9f7b; stroke:none;" d="M328 229L328 230L338 230L328 229z"/>
<path style="fill:#81590b; stroke:none;" d="M338.667 229.333L339.333 229.667L338.667 229.333M156 230L157 231L156 230z"/>
<path style="fill:#bd9f7b; stroke:none;" d="M157 230L157 231L160 231L157 230z"/>
<path style="fill:#efe2ca; stroke:none;" d="M160 230.468C120.809 237.861 134.123 297.169 173 290.674C212.304 284.109 199.335 223.047 160 230.468z"/>
<path style="fill:#bd9f7b; stroke:none;" d="M174.667 230.333L175.333 230.667L174.667 230.333z"/>
<path style="fill:#81590b; stroke:none;" d="M176 230L177 231L176 230M323 230L324 231L323 230z"/>
<path style="fill:#bd9f7b; stroke:none;" d="M324.667 230.333L325.333 230.667L324.667 230.333z"/>
<path style="fill:#efe2ca; stroke:none;" d="M326 230.518C287.001 238.851 302.001 299.272 341 290.319C379.72 281.431 364.653 222.259 326 230.518z"/>
<path style="fill:#bd9f7b; stroke:none;" d="M340 230L340 231L343 231L340 230z"/>
<path style="fill:#81590b; stroke:none;" d="M343 230L344 231L343 230z"/>
<path style="fill:#bd9f7b; stroke:none;" d="M154.667 231.333L155.333 231.667L154.667 231.333M177.667 231.333L178.333 231.667L177.667 231.333z"/>
<path style="fill:#81590b; stroke:none;" d="M179 231L180 232L179 231M320 231L321 232L320 231z"/>
<path style="fill:#bd9f7b; stroke:none;" d="M321.667 231.333L322.333 231.667L321.667 231.333M344 231L345 232L344 231z"/>
<path style="fill:#81590b; stroke:none;" d="M345 231L346 232L345 231z"/>
<path style="fill:#bd9f7b; stroke:none;" d="M152.667 232.333L153.333 232.667L152.667 232.333M180 232L181 233L180 232z"/>
<path style="fill:#81590b; stroke:none;" d="M181 232L182 233L181 232M318 232L319 233L318 232z"/>
<path style="fill:#bd9f7b; stroke:none;" d="M319 232L320 233L319 232M346.667 232.333L347.333 232.667L346.667 232.333z"/>
<path style="fill:#81590b; stroke:none;" d="M150 233L151 234L150 233z"/>
<path style="fill:#bd9f7b; stroke:none;" d="M151 233L152 234L151 233z"/>
<path style="fill:#0b0501; stroke:none;" d="M162 233.515C144.985 234.584 131.401 263.485 145.419 276.552C150.948 281.706 157.908 273.283 163.996 276.068C168.466 278.113 170.556 285.895 176.015 285.294C194.173 283.296 199.507 259.068 191.737 246.004C187.214 238.399 170.661 232.971 162 233.515z"/>
<path style="fill:#bd9f7b; stroke:none;" d="M182 233L183 234L182 233M317 233L318 234L317 233z"/>
<path style="fill:#0b0501; stroke:none;" d="M331 233.465C317.738 235.723 307.005 241.027 305.184 256C303.841 267.047 310.439 286.851 324.892 284.836C329.558 284.186 330.112 278.055 334.044 275.916C340.442 272.435 349.594 281.183 354.637 273.852C366.538 256.548 352.647 229.779 331 233.465z"/>
<path style="fill:#bd9f7b; stroke:none;" d="M348 233L349 234L348 233z"/>
<path style="fill:#81590b; stroke:none;" d="M349 233L350 234L349 233M148 234L149 235L148 234z"/>
<path style="fill:#bd9f7b; stroke:none;" d="M149 234L150 235L149 234M183 234L184 235L183 234z"/>
<path style="fill:#81590b; stroke:none;" d="M184 234L185 235L184 234M315 234L316 235L315 234z"/>
<path style="fill:#bd9f7b; stroke:none;" d="M316 234L317 235L316 234M350 234L351 235L350 234z"/>
<path style="fill:#81590b; stroke:none;" d="M147 235L148 236L147 235z"/>
<path style="fill:#bd9f7b; stroke:none;" d="M185 235L186 236L185 235M314 235L315 236L314 235z"/>
<path style="fill:#81590b; stroke:none;" d="M352 235L353 236L352 235z"/>
<path style="fill:#bd9f7b; stroke:none;" d="M146 236L147 237L146 236M186 236L187 237L186 236M313 236L314 237L313 236M353 236L354 237L353 236M145 237L146 238L145 237M187 237L188 238L187 237M312 237L313 238L312 237M354 237L355 238L354 237M144 238L145 239L144 238M188 238L189 239L188 238M311 238L312 239L311 238M355 238L356 239L355 238M143 239L144 240L143 239M189 239L190 240L189 239M310 239L311 240L310 239M356 239L357 240L356 239z"/>
<path style="fill:#81590b; stroke:none;" d="M142 240L143 241L142 240z"/>
<path style="fill:#bd9f7b; stroke:none;" d="M190 240L191 241L190 240M309 240L310 241L309 240z"/>
<path style="fill:#81590b; stroke:none;" d="M357 240L358 241L357 240M141 241L142 242L141 241z"/>
<path style="fill:#bd9f7b; stroke:none;" d="M191 241L192 242L191 241M308 241L309 242L308 241z"/>
<path style="fill:#81590b; stroke:none;" d="M358 241L359 242L358 241z"/>
<path style="fill:#bd9f7b; stroke:none;" d="M141 242L142 243L141 242z"/>
<path style="fill:#81590b; stroke:none;" d="M192 242L193 243L192 242M307 242L308 243L307 242z"/>
<path style="fill:#bd9f7b; stroke:none;" d="M358 242L359 243L358 242M140 243L141 244L140 243M192 243L193 244L192 243M307 243L308 244L307 243M359 243L360 244L359 243z"/>
<path style="fill:#81590b; stroke:none;" d="M139 244L140 245L139 244z"/>
<path style="fill:#bd9f7b; stroke:none;" d="M193 244L194 245L193 244M306 244L307 245L306 244z"/>
<path style="fill:#81590b; stroke:none;" d="M360 244L361 245L360 244z"/>
<path style="fill:#bd9f7b; stroke:none;" d="M139 245L140 246L139 245z"/>
<path style="fill:#81590b; stroke:none;" d="M194 245L195 246L194 245M305 245L306 246L305 245z"/>
<path style="fill:#bd9f7b; stroke:none;" d="M360 245L361 246L360 245z"/>
<path style="fill:#81590b; stroke:none;" d="M138 246L139 247L138 246z"/>
<path style="fill:#bd9f7b; stroke:none;" d="M194 246L195 247L194 246M305 246L306 247L305 246z"/>
<path style="fill:#81590b; stroke:none;" d="M361 246L362 247L361 246z"/>
<path style="fill:#bd9f7b; stroke:none;" d="M138 247L139 248L138 247M361 247L362 248L361 247z"/>
<path style="fill:#81590b; stroke:none;" d="M137 248L138 249L137 248z"/>
<path style="fill:#bd9f7b; stroke:none;" d="M195.333 248.667L195.667 249.333L195.333 248.667M304.333 248.667L304.667 249.333L304.333 248.667z"/>
<path style="fill:#81590b; stroke:none;" d="M362 248L363 249L362 248z"/>
<path style="fill:#bd9f7b; stroke:none;" d="M137 249L138 250L137 249M362.333 249.667L362.667 250.333L362.333 249.667z"/>
<path style="fill:#81590b; stroke:none;" d="M196 250L197 251L196 250M303 250L304 251L303 250M136 251L137 252L136 251z"/>
<path style="fill:#bd9f7b; stroke:none;" d="M196.333 251.667L196.667 252.333L196.333 251.667M303.333 251.667L303.667 252.333L303.333 251.667z"/>
<path style="fill:#81590b; stroke:none;" d="M363 251L364 252L363 251z"/>
<path style="fill:#bd9f7b; stroke:none;" d="M136.333 252.667L136.667 253.333L136.333 252.667M363.333 252.667L363.667 253.333L363.333 252.667z"/>
<path style="fill:#81590b; stroke:none;" d="M197.333 254.667L197.667 255.333L197.333 254.667M302.333 254.667L302.667 255.333L302.333 254.667M135 256L135 259L136 259L135 256z"/>
<path style="fill:#bd9f7b; stroke:none;" d="M197 256L197 265L198 265L197 256M302 256L302 265L303 265L302 256z"/>
<path style="fill:#81590b; stroke:none;" d="M364 256L364 259L365 259L364 256z"/>
<path style="fill:#bd9f7b; stroke:none;" d="M135 259L135 262L136 262L135 259M364 259L364 262L365 262L364 259z"/>
<path style="fill:#81590b; stroke:none;" d="M135 262L135 265L136 265L135 262M364 262L364 265L365 265L364 262M197.333 265.667L197.667 266.333L197.333 265.667M302.333 265.667L302.667 266.333L302.333 265.667z"/>
<path style="fill:#bd9f7b; stroke:none;" d="M136 267L137 268L136 267M363 267L364 268L363 267z"/>
<path style="fill:#81590b; stroke:none;" d="M136.333 268.667L136.667 269.333L136.333 268.667z"/>
<path style="fill:#bd9f7b; stroke:none;" d="M196.333 268.667L196.667 269.333L196.333 268.667M303.333 268.667L303.667 269.333L303.333 268.667z"/>
<path style="fill:#81590b; stroke:none;" d="M363.333 268.667L363.667 269.333L363.333 268.667z"/>
<path style="fill:#0b0501; stroke:none;" d="M304 269L305 270L304 269z"/>
<path style="fill:#bd9f7b; stroke:none;" d="M137.333 270.667L137.667 271.333L137.333 270.667z"/>
<path style="fill:#81590b; stroke:none;" d="M196 270L197 271L196 270M303 270L304 271L303 270z"/>
<path style="fill:#bd9f7b; stroke:none;" d="M362 270L363 271L362 270M195 271L196 272L195 271z"/>
<path style="fill:#0b0501; stroke:none;" d="M218.001 271.479C208.895 273.369 204.891 286.265 215.015 290.258C219.64 292.081 226.11 291 231 291L266 291C271.712 291 279.598 292.382 284.985 290.258C295.109 286.265 291.105 273.369 281.999 271.479C271.975 269.399 260.218 271 250 271C239.782 271 228.025 269.399 218.001 271.479z"/>
<path style="fill:#bd9f7b; stroke:none;" d="M304 271L305 272L304 271z"/>
<path style="fill:#81590b; stroke:none;" d="M362.333 271.667L362.667 272.333L362.333 271.667M137 272L138 273L137 272M195 272L196 273L195 272M304 272L305 273L304 272z"/>
<path style="fill:#bd9f7b; stroke:none;" d="M138 273L139 274L138 273M361 273L362 274L361 273z"/>
<path style="fill:#81590b; stroke:none;" d="M138 274L139 275L138 274z"/>
<path style="fill:#bd9f7b; stroke:none;" d="M194 274L195 275L194 274M305 274L306 275L305 274z"/>
<path style="fill:#81590b; stroke:none;" d="M361 274L362 275L361 274z"/>
<path style="fill:#bd9f7b; stroke:none;" d="M139 275L140 276L139 275M360 275L361 276L360 275z"/>
<path style="fill:#81590b; stroke:none;" d="M139 276L140 277L139 276M193 276L194 277L193 276M306 276L307 277L306 276M360 276L361 277L360 276z"/>
<path style="fill:#bd9f7b; stroke:none;" d="M140 277L141 278L140 277M192 277L193 278L192 277M307 277L308 278L307 277z"/>
<path style="fill:#81590b; stroke:none;" d="M359 277L360 278L359 277z"/>
<path style="fill:#bd9f7b; stroke:none;" d="M141 278L142 279L141 278z"/>
<path style="fill:#81590b; stroke:none;" d="M192 278L193 279L192 278M307 278L308 279L307 278z"/>
<path style="fill:#bd9f7b; stroke:none;" d="M358 278L359 279L358 278z"/>
<path style="fill:#81590b; stroke:none;" d="M141 279L142 280L141 279M191 279L192 280L191 279M308 279L309 280L308 279z"/>
<path style="fill:#bd9f7b; stroke:none;" d="M357 279L358 280L357 279z"/>
<path style="fill:#81590b; stroke:none;" d="M142 280L143 281L142 280z"/>
<path style="fill:#bd9f7b; stroke:none;" d="M190 280L191 281L190 280M309 280L310 281L309 280z"/>
<path style="fill:#81590b; stroke:none;" d="M357 280L358 281L357 280M143 281L144 282L143 281z"/>
<path style="fill:#bd9f7b; stroke:none;" d="M189 281L190 282L189 281M310 281L311 282L310 281z"/>
<path style="fill:#81590b; stroke:none;" d="M356 281L357 282L356 281M144 282L145 283L144 282z"/>
<path style="fill:#bd9f7b; stroke:none;" d="M188 282L189 283L188 282M311 282L312 283L311 282z"/>
<path style="fill:#81590b; stroke:none;" d="M355 282L356 283L355 282M145 283L146 284L145 283z"/>
<path style="fill:#bd9f7b; stroke:none;" d="M187 283L188 284L187 283M312 283L313 284L312 283z"/>
<path style="fill:#81590b; stroke:none;" d="M354 283L355 284L354 283M146 284L147 285L146 284z"/>
<path style="fill:#bd9f7b; stroke:none;" d="M186 284L187 285L186 284M313 284L314 285L313 284z"/>
<path style="fill:#81590b; stroke:none;" d="M353 284L354 285L353 284z"/>
<path style="fill:#bd9f7b; stroke:none;" d="M148 285L149 286L148 285z"/>
<path style="fill:#81590b; stroke:none;" d="M185 285L186 286L185 285M314 285L315 286L314 285z"/>
<path style="fill:#bd9f7b; stroke:none;" d="M351 285L352 286L351 285M149 286L150 287L149 286M183 286L184 287L183 286M316 286L317 287L316 286M350 286L351 287L350 286M151 287L152 288L151 287z"/>
<path style="fill:#81590b; stroke:none;" d="M182 287L183 288L182 287M317 287L318 288L317 287z"/>
<path style="fill:#bd9f7b; stroke:none;" d="M348 287L349 288L348 287z"/>
<path style="fill:#81590b; stroke:none;" d="M152 288L153 289L152 288z"/>
<path style="fill:#bd9f7b; stroke:none;" d="M153 288L154 289L153 288z"/>
<path style="fill:#81590b; stroke:none;" d="M180 288L181 289L180 288M319 288L320 289L319 288z"/>
<path style="fill:#bd9f7b; stroke:none;" d="M346 288L347 289L346 288z"/>
<path style="fill:#81590b; stroke:none;" d="M347 288L348 289L347 288z"/>
<path style="fill:#bd9f7b; stroke:none;" d="M155 289L156 290L155 289M177 289L178 290L177 289z"/>
<path style="fill:#81590b; stroke:none;" d="M178 289L179 290L178 289M321 289L322 290L321 289z"/>
<path style="fill:#bd9f7b; stroke:none;" d="M322 289L323 290L322 289M344 289L345 290L344 289z"/>
<path style="fill:#81590b; stroke:none;" d="M157 290L158 291L157 290z"/>
<path style="fill:#bd9f7b; stroke:none;" d="M158.667 290.333L159.333 290.667L158.667 290.333M174 290L175 291L174 290z"/>
<path style="fill:#81590b; stroke:none;" d="M175 290L176 291L175 290M324 290L325 291L324 290z"/>
<path style="fill:#bd9f7b; stroke:none;" d="M325 290L326 291L325 290M340.667 290.333L341.333 290.667L340.667 290.333z"/>
<path style="fill:#81590b; stroke:none;" d="M342 290L343 291L342 290M162 291L163 292L162 291z"/>
<path style="fill:#bd9f7b; stroke:none;" d="M163 291L163 292L170 292L163 291z"/>
<path style="fill:#81590b; stroke:none;" d="M170.667 291.333L171.333 291.667L170.667 291.333M328.667 291.333L329.333 291.667L328.667 291.333z"/>
<path style="fill:#bd9f7b; stroke:none;" d="M330 291L330 292L337 292L330 291z"/>
<path style="fill:#81590b; stroke:none;" d="M337 291L338 292L337 291z"/>
<path style="fill:#bd9f7b; stroke:none;" d="M104 305L104 309L105 309L104 305M395 305L395 309L396 309L395 305z"/>
<path style="fill:#efe2ca; stroke:none;" d="M104 309L105 310L104 309z"/>
<path style="fill:#81590b; stroke:none;" d="M105.333 309.667L105.667 310.333L105.333 309.667M394.333 309.667L394.667 310.333L394.333 309.667z"/>
<path style="fill:#efe2ca; stroke:none;" d="M395 309L396 310L395 309z"/>
<path style="fill:#bd9f7b; stroke:none;" d="M105 311L106 312L105 311M394 311L395 312L394 311z"/>
<path style="fill:#efe2ca; stroke:none;" d="M105.333 312.667L105.667 313.333L105.333 312.667M394.333 312.667L394.667 313.333L394.333 312.667z"/>
<path style="fill:#81590b; stroke:none;" d="M106 313L107 314L106 313M393 313L394 314L393 313z"/>
<path style="fill:#bd9f7b; stroke:none;" d="M106 314L107 315L106 314M393 314L394 315L393 314z"/>
<path style="fill:#efe2ca; stroke:none;" d="M106 315L107 316L106 315z"/>
<path style="fill:#81590b; stroke:none;" d="M107 315L108 316L107 315M392 315L393 316L392 315z"/>
<path style="fill:#efe2ca; stroke:none;" d="M393 315L394 316L393 315z"/>
<path style="fill:#bd9f7b; stroke:none;" d="M107 316L108 317L107 316M392 316L393 317L392 316z"/>
<path style="fill:#efe2ca; stroke:none;" d="M107 317L108 318L107 317z"/>
<path style="fill:#81590b; stroke:none;" d="M108 317L109 318L108 317M391 317L392 318L391 317z"/>
<path style="fill:#efe2ca; stroke:none;" d="M392 317L393 318L392 317z"/>
<path style="fill:#bd9f7b; stroke:none;" d="M108 318L110 320L108 318M391 318L390 320L391 318z"/>
<path style="fill:#efe2ca; stroke:none;" d="M108 319L109 320L108 319M391 319L392 320L391 319M109 320L111 322L109 320z"/>
<path style="fill:#81590b; stroke:none;" d="M110 320L111 321L110 320M389 320L390 321L389 320z"/>
<path style="fill:#efe2ca; stroke:none;" d="M390 320L391 321L390 320M389 321L390 322L389 321z"/>
<path style="fill:#bd9f7b; stroke:none;" d="M111 322L112 323L111 322M388 322L389 323L388 322M112 323L115 326L112 323M387 323L388 324L387 323z"/>
<path style="fill:#efe2ca; stroke:none;" d="M112 324L113 325L112 324z"/>
<path style="fill:#bd9f7b; stroke:none;" d="M386 324L387 325L386 324z"/>
<path style="fill:#efe2ca; stroke:none;" d="M113 325L114 326L113 325z"/>
<path style="fill:#bd9f7b; stroke:none;" d="M385 325L386 326L385 325z"/>
<path style="fill:#efe2ca; stroke:none;" d="M114 326L115 327L114 326z"/>
<path style="fill:#81590b; stroke:none;" d="M115 326L116 327L115 326M384 326L385 327L384 326z"/>
<path style="fill:#efe2ca; stroke:none;" d="M385 326L386 327L385 326z"/>
<path style="fill:#bd9f7b; stroke:none;" d="M115 327L116 328L115 327M384 327L385 328L384 327z"/>
<path style="fill:#efe2ca; stroke:none;" d="M115 328L116 329L115 328z"/>
<path style="fill:#81590b; stroke:none;" d="M116 328L117 329L116 328z"/>
<path style="fill:#0b0501; stroke:none;" d="M117 328C119.506 336.7 124.711 344.916 128.753 353C130.296 356.087 133.49 360.378 132.621 364C130.784 371.656 120.072 380.8 115.21 387C100.735 405.459 85.6711 423.42 71.3488 442C66.0366 448.892 53.5871 458.875 53.1528 468C52.9194 472.903 56.2165 476.895 61.0008 477.772C73.5267 480.066 88.2609 478 101 478C106.407 478 113.867 479.303 118.96 477.258C127.462 473.843 132.725 457.462 137.2 450C147.246 433.247 157.697 416.725 167.796 400C172.707 391.867 176.604 381.128 184 375L178 385C225.508 382.478 274.484 382.504 322 385L317 375L318 375C330.057 400.795 347.567 424.612 362.2 449C366.874 456.79 371.88 472.347 380.093 476.821C384.657 479.307 391.967 478 397 478C410.417 478 424.67 479.383 438 477.891C442.819 477.352 446.598 474.017 446.847 469C447.314 459.607 433.994 448.931 428.651 442C414.328 423.418 399.266 405.461 384.79 387C379.928 380.8 369.216 371.656 367.379 364C366.51 360.378 369.704 356.087 371.247 353C375.289 344.916 380.494 336.7 383 328C359.752 337.666 332.881 334 308 334L186 334C162.775 334 138.715 337.029 117 328z"/>
<path style="fill:#81590b; stroke:none;" d="M383 328L384 329L383 328z"/>
<path style="fill:#bd9f7b; stroke:none;" d="M116 329L117 330L116 329M383 329L384 330L383 329z"/>
<path style="fill:#efe2ca; stroke:none;" d="M116 330L117 331L116 330z"/>
<path style="fill:#81590b; stroke:none;" d="M117 330L118 331L117 330M382 330L383 331L382 330z"/>
<path style="fill:#bd9f7b; stroke:none;" d="M117 331L118 332L117 331M382 331L383 332L382 331z"/>
<path style="fill:#efe2ca; stroke:none;" d="M117 332L118 333L117 332z"/>
<path style="fill:#81590b; stroke:none;" d="M118 332L119 333L118 332M381 332L382 333L381 332z"/>
<path style="fill:#efe2ca; stroke:none;" d="M382 332L383 333L382 332z"/>
<path style="fill:#bd9f7b; stroke:none;" d="M118 333L119 334L118 333M381 333L382 334L381 333z"/>
<path style="fill:#81590b; stroke:none;" d="M119 334L120 335L119 334M380 334L381 335L380 334z"/>
<path style="fill:#bd9f7b; stroke:none;" d="M119 335L120 336L119 335M380 335L381 336L380 335z"/>
<path style="fill:#81590b; stroke:none;" d="M120 336L121 337L120 336M379 336L380 337L379 336z"/>
<path style="fill:#bd9f7b; stroke:none;" d="M120 337L121 338L120 337M379 337L380 338L379 337z"/>
<path style="fill:#81590b; stroke:none;" d="M121 338L122 339L121 338M378 338L379 339L378 338z"/>
<path style="fill:#bd9f7b; stroke:none;" d="M121 339L122 340L121 339M378 339L379 340L378 339z"/>
<path style="fill:#81590b; stroke:none;" d="M122 340L123 341L122 340M377 340L378 341L377 340z"/>
<path style="fill:#bd9f7b; stroke:none;" d="M122 341L123 342L122 341M377 341L378 342L377 341z"/>
<path style="fill:#81590b; stroke:none;" d="M123 342L124 343L123 342M376 342L377 343L376 342z"/>
<path style="fill:#bd9f7b; stroke:none;" d="M123 343L124 344L123 343M376 343L377 344L376 343z"/>
<path style="fill:#81590b; stroke:none;" d="M124 344L125 345L124 344M375 344L376 345L375 344z"/>
<path style="fill:#bd9f7b; stroke:none;" d="M124 345L125 346L124 345M375 345L376 346L375 345z"/>
<path style="fill:#efe2ca; stroke:none;" d="M124 346L125 347L124 346z"/>
<path style="fill:#81590b; stroke:none;" d="M125 346L126 347L125 346M374 346L375 347L374 346z"/>
<path style="fill:#bd9f7b; stroke:none;" d="M125 347L126 348L125 347M374 347L375 348L374 347z"/>
<path style="fill:#efe2ca; stroke:none;" d="M125 348L126 349L125 348z"/>
<path style="fill:#81590b; stroke:none;" d="M126 348L127 349L126 348M373 348L374 349L373 348z"/>
<path style="fill:#efe2ca; stroke:none;" d="M374 348L375 349L374 348z"/>
<path style="fill:#bd9f7b; stroke:none;" d="M126 349L127 350L126 349M373 349L374 350L373 349z"/>
<path style="fill:#efe2ca; stroke:none;" d="M126 350L127 351L126 350z"/>
<path style="fill:#81590b; stroke:none;" d="M127 350L128 351L127 350M372 350L373 351L372 350z"/>
<path style="fill:#efe2ca; stroke:none;" d="M373 350L374 351L373 350z"/>
<path style="fill:#bd9f7b; stroke:none;" d="M127 351L128 352L127 351M372 351L373 352L372 351z"/>
<path style="fill:#efe2ca; stroke:none;" d="M127 352L128 353L127 352z"/>
<path style="fill:#81590b; stroke:none;" d="M128 352L129 353L128 352M371 352L372 353L371 352z"/>
<path style="fill:#efe2ca; stroke:none;" d="M372 352L373 353L372 352z"/>
<path style="fill:#bd9f7b; stroke:none;" d="M128 353L129 354L128 353M371 353L372 354L371 353z"/>
<path style="fill:#efe2ca; stroke:none;" d="M128 354L129 355L128 354z"/>
<path style="fill:#81590b; stroke:none;" d="M129 354L130 355L129 354M370 354L371 355L370 354z"/>
<path style="fill:#efe2ca; stroke:none;" d="M371 354L372 355L371 354z"/>
<path style="fill:#bd9f7b; stroke:none;" d="M129 355L130 356L129 355M370 355L371 356L370 355z"/>
<path style="fill:#efe2ca; stroke:none;" d="M129 356L130 357L129 356z"/>
<path style="fill:#81590b; stroke:none;" d="M130 356L131 357L130 356M369 356L370 357L369 356z"/>
<path style="fill:#efe2ca; stroke:none;" d="M370 356L371 357L370 356z"/>
<path style="fill:#bd9f7b; stroke:none;" d="M130 357L131 358L130 357M369 357L370 358L369 357z"/>
<path style="fill:#efe2ca; stroke:none;" d="M130 358L131 359L130 358z"/>
<path style="fill:#81590b; stroke:none;" d="M131 358L132 359L131 358M368 358L369 359L368 358z"/>
<path style="fill:#efe2ca; stroke:none;" d="M369 358L370 359L369 358z"/>
<path style="fill:#bd9f7b; stroke:none;" d="M131 359L132 360L131 359M368 359L369 360L368 359z"/>
<path style="fill:#efe2ca; stroke:none;" d="M131 360L132 361L131 360z"/>
<path style="fill:#81590b; stroke:none;" d="M132 360L133 361L132 360M367 360L368 361L367 360z"/>
<path style="fill:#efe2ca; stroke:none;" d="M368 360L369 361L368 360z"/>
<path style="fill:#bd9f7b; stroke:none;" d="M132 361L133 362L132 361M367 361L368 362L367 361z"/>
<path style="fill:#efe2ca; stroke:none;" d="M132.333 362.667L132.667 363.333L132.333 362.667z"/>
<path style="fill:#81590b; stroke:none;" d="M133 362L130 368L133 362M366 362L370 368L366 362z"/>
<path style="fill:#efe2ca; stroke:none;" d="M367.333 362.667L367.667 363.333L367.333 362.667z"/>
<path style="fill:#bd9f7b; stroke:none;" d="M132 364L133 365L132 364M367 364L368 365L367 364z"/>
<path style="fill:#efe2ca; stroke:none;" d="M131 365L132 366L131 365M368 365L369 366L368 365M130 366L131 367L130 366M369 366L370 367L369 366M129 367L128 369L129 367M370 367L371 368L370 367z"/>
<path style="fill:#bd9f7b; stroke:none;" d="M129 368L128 370L129 368M370 368L372 370L370 368z"/>
<path style="fill:#81590b; stroke:none;" d="M129 369L130 370L129 369M370 369L371 370L370 369z"/>
<path style="fill:#efe2ca; stroke:none;" d="M127 370L125 373L127 370z"/>
<path style="fill:#81590b; stroke:none;" d="M128 370L129 371L128 370M371 370L375 374L371 370z"/>
<path style="fill:#efe2ca; stroke:none;" d="M372 370L373 371L372 370z"/>
<path style="fill:#81590b; stroke:none;" d="M127 371L128 372L127 371z"/>
<path style="fill:#efe2ca; stroke:none;" d="M373 371L374 372L373 371z"/>
<path style="fill:#81590b; stroke:none;" d="M126 372L127 373L126 372z"/>
<path style="fill:#efe2ca; stroke:none;" d="M374 372L375 373L374 372z"/>
<path style="fill:#bd9f7b; stroke:none;" d="M125 373L126 374L125 373M124 374L125 375L124 374M375 374L376 375L375 374z"/>
<path style="fill:#efe2ca; stroke:none;" d="M123 375L120 379L123 375z"/>
<path style="fill:#81590b; stroke:none;" d="M124 375L125 376L124 375M182 375L181 377L182 375z"/>
<path style="fill:#efe2ca; stroke:none;" d="M183 375L184 376L183 375M187 375L187 376L190 376L187 375M209 375L209 376L312 376L281 375L209 375M314.667 375.333L315.333 375.667L314.667 375.333z"/>
<path style="fill:#81590b; stroke:none;" d="M317 375L319 377L317 375M375 375L379 379L375 375z"/>
<path style="fill:#efe2ca; stroke:none;" d="M376 375L377 376L376 375z"/>
<path style="fill:#81590b; stroke:none;" d="M123 376L124 377L123 376z"/>
<path style="fill:#efe2ca; stroke:none;" d="M182 376L183 377L182 376M317 376L318 377L317 376M377 376L378 377L377 376z"/>
<path style="fill:#81590b; stroke:none;" d="M122 377L123 378L122 377z"/>
<path style="fill:#bd9f7b; stroke:none;" d="M181 377L182 378L181 377M318 377L319 378L318 377z"/>
<path style="fill:#efe2ca; stroke:none;" d="M378 377L379 378L378 377z"/>
<path style="fill:#bd9f7b; stroke:none;" d="M121 378L122 379L121 378z"/>
<path style="fill:#81590b; stroke:none;" d="M180 378L178 382L179 382L180 378z"/>
<path style="fill:#efe2ca; stroke:none;" d="M181 378L182 379L181 378M318 378L319 379L318 378z"/>
<path style="fill:#81590b; stroke:none;" d="M319 378L321 382L322 382L319 378z"/>
<path style="fill:#efe2ca; stroke:none;" d="M379 378L380 379L379 378z"/>
<path style="fill:#bd9f7b; stroke:none;" d="M120 379L121 380L120 379M180 379L181 380L180 379M319 379L320 380L319 379M379 379L380 380L379 379z"/>
<path style="fill:#efe2ca; stroke:none;" d="M119 380L116 384L119 380z"/>
<path style="fill:#81590b; stroke:none;" d="M120 380L121 381L120 380M379 380L386 388L379 380z"/>
<path style="fill:#efe2ca; stroke:none;" d="M380 380L381 381L380 380z"/>
<path style="fill:#81590b; stroke:none;" d="M119 381L120 382L119 381z"/>
<path style="fill:#efe2ca; stroke:none;" d="M179 381L180 382L179 381M320 381L321 382L320 381M381 381L382 382L381 381z"/>
<path style="fill:#81590b; stroke:none;" d="M118 382L119 383L118 382z"/>
<path style="fill:#bd9f7b; stroke:none;" d="M178 382L179 383L178 382M321 382L322 383L321 382z"/>
<path style="fill:#efe2ca; stroke:none;" d="M382 382L383 383L382 382z"/>
<path style="fill:#bd9f7b; stroke:none;" d="M117 383L116 385L117 383z"/>
<path style="fill:#81590b; stroke:none;" d="M177 383L163 407C174.307 404.308 187.412 406 199 406L268 406C289.662 406 315.929 401.983 337 407L323 383L322 383L323 386L177 386L177 383z"/>
<path style="fill:#efe2ca; stroke:none;" d="M178 383L179 384L178 383M321 383L322 384L321 383M383 383L384 384L383 383z"/>
<path style="fill:#81590b; stroke:none;" d="M117 384L118 385L117 384z"/>
<path style="fill:#bd9f7b; stroke:none;" d="M177 384C181.426 389.065 199.414 386 206 386L291 386C298.032 386 318.314 389.362 323 384C304.293 388.454 281.223 385 262 385L207 385C197.251 385 186.521 386.267 177 384z"/>
<path style="fill:#efe2ca; stroke:none;" d="M179.667 384.333L180.333 384.667L179.667 384.333M187 384L187 385L202 385L187 384M206 384L206 385L277 385L255 384L206 384M282 384L282 385L312 385L282 384M319.667 384.333L320.333 384.667L319.667 384.333z"/>
<path style="fill:#bd9f7b; stroke:none;" d="M383 384L384 385L383 384z"/>
<path style="fill:#efe2ca; stroke:none;" d="M115 385L112 389L115 385z"/>
<path style="fill:#81590b; stroke:none;" d="M116 385L117 386L116 385z"/>
<path style="fill:#efe2ca; stroke:none;" d="M384 385L385 386L384 385z"/>
<path style="fill:#81590b; stroke:none;" d="M115 386L116 387L115 386z"/>
<path style="fill:#efe2ca; stroke:none;" d="M385 386L386 387L385 386z"/>
<path style="fill:#81590b; stroke:none;" d="M114 387L115 388L114 387z"/>
<path style="fill:#efe2ca; stroke:none;" d="M386 387L388 389L386 387z"/>
<path style="fill:#bd9f7b; stroke:none;" d="M113 388L111 391L113 388M386 388L389 391L386 388z"/>
<path style="fill:#81590b; stroke:none;" d="M113 389L114 390L113 389M386 389L387 390L386 389M112 390L113 391L112 390M387 390L388 391L387 390z"/>
<path style="fill:#efe2ca; stroke:none;" d="M110 391L108 394L110 391z"/>
<path style="fill:#81590b; stroke:none;" d="M111 391L112 392L111 391M388 391C391.956 398.749 398.989 407.839 406 413L388 391z"/>
<path style="fill:#efe2ca; stroke:none;" d="M389 391L390 392L389 391z"/>
<path style="fill:#81590b; stroke:none;" d="M110 392L94 413C99.0573 409.277 110.214 398.516 110 392z"/>
<path style="fill:#efe2ca; stroke:none;" d="M390 392L392 394L390 392z"/>
<path style="fill:#bd9f7b; stroke:none;" d="M109 393L110 394L109 393M390 393L391 394L390 393M108 394L109 395L108 394M391 394L392 395L391 394M107 395L108 396L107 395M392 395L393 396L392 395z"/>
<path style="fill:#efe2ca; stroke:none;" d="M106 396L107 397L106 396M393 396L394 397L393 396M105 397L104 399L105 397M394 397L396 399L394 397z"/>
<path style="fill:#bd9f7b; stroke:none;" d="M105 398L106 399L105 398M394 398L395 399L394 398M104 399L105 400L104 399M395 399L396 400L395 399M103 400L104 401L103 400M396 400L397 401L396 400z"/>
<path style="fill:#efe2ca; stroke:none;" d="M102 401L103 402L102 401M397 401L398 402L397 401M101 402L100 404L101 402M398 402L400 404L398 402z"/>
<path style="fill:#bd9f7b; stroke:none;" d="M101 403L102 404L101 403M398 403L399 404L398 403M100 404L101 405L100 404M399 404L400 405L399 404z"/>
<path style="fill:#efe2ca; stroke:none;" d="M99 405L100 406L99 405z"/>
<path style="fill:#bd9f7b; stroke:none;" d="M400 405L401 406L400 405z"/>
<path style="fill:#efe2ca; stroke:none;" d="M98 406L99 407L98 406M164 406L164 407L336 407C322.879 401.494 299.3 406 285 406L164 406M401 406L402 407L401 406M97 407L96 409L97 407z"/>
<path style="fill:#bd9f7b; stroke:none;" d="M163 407L164 408L163 407z"/>
<path style="fill:#0b0501; stroke:none;" d="M160 416L340 416C335.631 402.208 316.831 407 305 407L199 407C186.683 407 164.537 401.678 160 416z"/>
<path style="fill:#bd9f7b; stroke:none;" d="M336 407L337 408L336 407z"/>
<path style="fill:#efe2ca; stroke:none;" d="M402 407L404 409L402 407z"/>
<path style="fill:#bd9f7b; stroke:none;" d="M97 408L98 409L97 408z"/>
<path style="fill:#81590b; stroke:none;" d="M162 408L163 409L162 408z"/>
<path style="fill:#efe2ca; stroke:none;" d="M163 408L164 409L163 408M336 408L338 412L339 412L336 408z"/>
<path style="fill:#81590b; stroke:none;" d="M337 408L338 409L337 408z"/>
<path style="fill:#bd9f7b; stroke:none;" d="M402 408L403 409L402 408M96 409L97 410L96 409z"/>
<path style="fill:#efe2ca; stroke:none;" d="M162 409L161 412L162 409z"/>
<path style="fill:#bd9f7b; stroke:none;" d="M403 409L404 410L403 409z"/>
<path style="fill:#efe2ca; stroke:none;" d="M95 410L96 411L95 410z"/>
<path style="fill:#81590b; stroke:none;" d="M161 410L162 411L161 410M338 410L339 411L338 410z"/>
<path style="fill:#efe2ca; stroke:none;" d="M404 410L405 411L404 410M94 411L95 412L94 411z"/>
<path style="fill:#81590b; stroke:none;" d="M160 411L161 412L160 411M339 411L340 412L339 411z"/>
<path style="fill:#efe2ca; stroke:none;" d="M405 411L406 412L405 411M93 412L92 414L93 412z"/>
<path style="fill:#bd9f7b; stroke:none;" d="M160 412L161 413L160 412M339 412L340 413L339 412z"/>
<path style="fill:#efe2ca; stroke:none;" d="M406 412L408 414L406 412z"/>
<path style="fill:#bd9f7b; stroke:none;" d="M93 413L94 414L93 413z"/>
<path style="fill:#81590b; stroke:none;" d="M159 413L160 414L159 413z"/>
<path style="fill:#efe2ca; stroke:none;" d="M160 413L161 414L160 413M339 413L340 416L208 416L175 416L160 414L159 414C159.982 418.583 166.12 417 170 417L202 417L341 417L339 413z"/>
<path style="fill:#81590b; stroke:none;" d="M340 413L341 414L340 413z"/>
<path style="fill:#bd9f7b; stroke:none;" d="M406 413L407 414L406 413M92 414L93 415L92 414M407 414L408 415L407 414z"/>
<path style="fill:#efe2ca; stroke:none;" d="M91 415L88 419L91 415z"/>
<path style="fill:#81590b; stroke:none;" d="M92 415L93 416L92 415z"/>
<path style="fill:#bd9f7b; stroke:none;" d="M158.333 415.667L158.667 416.333L158.333 415.667M341.333 415.667L341.667 416.333L341.333 415.667z"/>
<path style="fill:#81590b; stroke:none;" d="M407 415L410 418L407 415z"/>
<path style="fill:#efe2ca; stroke:none;" d="M408 415L409 416L408 415z"/>
<path style="fill:#81590b; stroke:none;" d="M91 416L92 417L91 416M157 416L132.001 458L118.96 476.821L101 478L60 478L60 479L353 479L422 479C430.897 479 442.454 481.512 447 472L446 472C439.223 481.094 425.183 478 415 478C405.775 478 389.301 481.164 381.04 476.821C374.752 473.515 371.241 463.949 367.999 458C360.23 443.742 349.875 430.707 343 416C330.803 418.904 316.506 417 304 417L230 417C207.119 417 179.252 421.298 157 416z"/>
<path style="fill:#efe2ca; stroke:none;" d="M409 416L410 417L409 416z"/>
<path style="fill:#81590b; stroke:none;" d="M90 417L91 418L90 417z"/>
<path style="fill:#efe2ca; stroke:none;" d="M410 417L412 419L410 417z"/>
<path style="fill:#bd9f7b; stroke:none;" d="M89 418L90 419L89 418M410 418L411 419L410 418M88 419L89 420L88 419M411 419L412 420L411 419z"/>
<path style="fill:#efe2ca; stroke:none;" d="M87 420L84 424L87 420z"/>
<path style="fill:#81590b; stroke:none;" d="M88 420L89 421L88 420M411 420L414 423L411 420z"/>
<path style="fill:#efe2ca; stroke:none;" d="M412 420L413 421L412 420z"/>
<path style="fill:#81590b; stroke:none;" d="M87 421L88 422L87 421z"/>
<path style="fill:#efe2ca; stroke:none;" d="M413 421L414 422L413 421z"/>
<path style="fill:#81590b; stroke:none;" d="M86 422L87 423L86 422z"/>
<path style="fill:#efe2ca; stroke:none;" d="M414 422L416 424L414 422z"/>
<path style="fill:#bd9f7b; stroke:none;" d="M85 423L86 424L85 423M414 423L415 424L414 423M84 424L85 425L84 424M415 424L416 425L415 424z"/>
<path style="fill:#efe2ca; stroke:none;" d="M83 425L80 429L83 425z"/>
<path style="fill:#81590b; stroke:none;" d="M84 425L85 426L84 425z"/>
<path style="fill:#efe2ca; stroke:none;" d="M416 425L420 429L416 425z"/>
<path style="fill:#81590b; stroke:none;" d="M83 426L84 427L83 426M416 426L417 427L416 426M82 427L83 428L82 427M417 427L418 428L417 427z"/>
<path style="fill:#bd9f7b; stroke:none;" d="M81 428L82 429L81 428M418 428L419 429L418 428M80 429L81 430L80 429M419 429L420 430L419 429z"/>
<path style="fill:#efe2ca; stroke:none;" d="M79 430L76 434L79 430z"/>
<path style="fill:#81590b; stroke:none;" d="M80 430L81 431L80 430M419 430L422 433L419 430z"/>
<path style="fill:#efe2ca; stroke:none;" d="M420 430L421 431L420 430z"/>
<path style="fill:#81590b; stroke:none;" d="M79 431L80 432L79 431z"/>
<path style="fill:#efe2ca; stroke:none;" d="M421 431L422 432L421 431z"/>
<path style="fill:#81590b; stroke:none;" d="M78 432L79 433L78 432z"/>
<path style="fill:#efe2ca; stroke:none;" d="M422 432L424 434L422 432z"/>
<path style="fill:#bd9f7b; stroke:none;" d="M77 433L78 434L77 433M422 433L423 434L422 433M76 434L75 436L76 434M423 434L425 436L423 434z"/>
<path style="fill:#81590b; stroke:none;" d="M76 435L77 436L76 435M423 435L424 436L423 435z"/>
<path style="fill:#efe2ca; stroke:none;" d="M74 436L72 439L74 436z"/>
<path style="fill:#81590b; stroke:none;" d="M75 436L76 437L75 436M424 436L426 438L424 436z"/>
<path style="fill:#efe2ca; stroke:none;" d="M425 436L426 437L425 436z"/>
<path style="fill:#81590b; stroke:none;" d="M74 437L75 438L74 437z"/>
<path style="fill:#bd9f7b; stroke:none;" d="M146 437L146 438L354 438L334 437L292 437L146 437z"/>
<path style="fill:#efe2ca; stroke:none;" d="M426 437L428 439L426 437z"/>
<path style="fill:#bd9f7b; stroke:none;" d="M73 438L71 441L73 438z"/>
<path style="fill:#efe2ca; stroke:none;" d="M145 438L146 439L145 438z"/>
<path style="fill:#0b0501; stroke:none;" d="M134 458L366 458L353.671 439.028L341 438L313 438L196 438L162 438L147.21 438.603L134 458z"/>
<path style="fill:#efe2ca; stroke:none;" d="M354 438L355 439L354 438z"/>
<path style="fill:#bd9f7b; stroke:none;" d="M426 438L429 441L426 438z"/>
<path style="fill:#81590b; stroke:none;" d="M73 439L74 440L73 439z"/>
<path style="fill:#bd9f7b; stroke:none;" d="M144 439L145 440L144 439M355 439L356 440L355 439z"/>
<path style="fill:#81590b; stroke:none;" d="M426 439L427 440L426 439M72 440L73 441L72 440z"/>
<path style="fill:#efe2ca; stroke:none;" d="M144 440L145 441L144 440M355 440L356 441L355 440z"/>
<path style="fill:#81590b; stroke:none;" d="M427 440L428 441L427 440z"/>
<path style="fill:#efe2ca; stroke:none;" d="M70 441L68 444L70 441z"/>
<path style="fill:#81590b; stroke:none;" d="M71 441L72 442L71 441z"/>
<path style="fill:#efe2ca; stroke:none;" d="M143 441L142 444L143 441M356 441L357 442L356 441z"/>
<path style="fill:#81590b; stroke:none;" d="M428 441L437 454L438 454L428 441z"/>
<path style="fill:#efe2ca; stroke:none;" d="M429 441L430 442L429 441z"/>
<path style="fill:#81590b; stroke:none;" d="M70 442L62 454L63 454L70 442z"/>
<path style="fill:#bd9f7b; stroke:none;" d="M142 442L143 443L142 442M357 442L358 443L357 442z"/>
<path style="fill:#efe2ca; stroke:none;" d="M430 442L432 444L430 442z"/>
<path style="fill:#bd9f7b; stroke:none;" d="M69 443L70 444L69 443z"/>
<path style="fill:#efe2ca; stroke:none;" d="M357 443L358 444L357 443z"/>
<path style="fill:#bd9f7b; stroke:none;" d="M430 443L431 444L430 443M68 444L69 445L68 444M141 444L142 445L141 444M358 444L359 445L358 444M431 444L432 445L431 444M67 445L68 446L67 445z"/>
<path style="fill:#efe2ca; stroke:none;" d="M141 445L142 446L141 445M358 445L359 446L358 445z"/>
<path style="fill:#bd9f7b; stroke:none;" d="M432 445L433 446L432 445z"/>
<path style="fill:#efe2ca; stroke:none;" d="M66 446L67 447L66 446M140 446L139 449L140 446M359 446L360 447L359 446M433 446L434 447L433 446M65 447L64 449L65 447z"/>
<path style="fill:#bd9f7b; stroke:none;" d="M139 447L140 448L139 447M360 447L361 448L360 447z"/>
<path style="fill:#efe2ca; stroke:none;" d="M434 447L436 449L434 447z"/>
<path style="fill:#bd9f7b; stroke:none;" d="M65 448L66 449L65 448z"/>
<path style="fill:#efe2ca; stroke:none;" d="M360 448L361 449L360 448z"/>
<path style="fill:#bd9f7b; stroke:none;" d="M434 448L435 449L434 448M64 449L65 450L64 449M138 449L139 450L138 449M361 449L362 450L361 449M435 449L436 450L435 449M63 450L64 451L63 450z"/>
<path style="fill:#efe2ca; stroke:none;" d="M138 450L139 451L138 450M361 450L362 451L361 450z"/>
<path style="fill:#bd9f7b; stroke:none;" d="M436 450L437 451L436 450z"/>
<path style="fill:#efe2ca; stroke:none;" d="M62 451L63 452L62 451M137 451L138 452L137 451M362 451L363 452L362 451M437 451L438 452L437 451M61 452L60 454L61 452z"/>
<path style="fill:#bd9f7b; stroke:none;" d="M136 452L137 453L136 452M363 452L364 453L363 452z"/>
<path style="fill:#efe2ca; stroke:none;" d="M438 452L440 454L438 452z"/>
<path style="fill:#bd9f7b; stroke:none;" d="M61 453L62 454L61 453z"/>
<path style="fill:#efe2ca; stroke:none;" d="M136 453L137 454L136 453M363 453L364 454L363 453z"/>
<path style="fill:#bd9f7b; stroke:none;" d="M438 453L439 454L438 453M60 454L59 456L60 454M135 454L136 455L135 454M364 454L365 455L364 454M439 454L441 456L439 454z"/>
<path style="fill:#81590b; stroke:none;" d="M60 455L61 456L60 455z"/>
<path style="fill:#efe2ca; stroke:none;" d="M135 455L136 456L135 455z"/>
<path style="fill:#81590b; stroke:none;" d="M439 455L440 456L439 455z"/>
<path style="fill:#efe2ca; stroke:none;" d="M58 456L56 459L58 456z"/>
<path style="fill:#81590b; stroke:none;" d="M59 456L60 457L59 456z"/>
<path style="fill:#efe2ca; stroke:none;" d="M134 456L135 457L134 456M365 456L366 457L365 456z"/>
<path style="fill:#81590b; stroke:none;" d="M440 456L442 458L440 456z"/>
<path style="fill:#efe2ca; stroke:none;" d="M441 456L442 457L441 456z"/>
<path style="fill:#81590b; stroke:none;" d="M58 457L59 458L58 457z"/>
<path style="fill:#bd9f7b; stroke:none;" d="M133 457L146 459L179 459L316 459L353 459L367 457L336 458L278 458L182 458L133 457z"/>
<path style="fill:#efe2ca; stroke:none;" d="M442 457L444 459L442 457z"/>
<path style="fill:#bd9f7b; stroke:none;" d="M57 458L58 459L57 458M442 458L443 459L442 458M56 459L57 460L56 459M443 459L444 460L443 459z"/>
<path style="fill:#efe2ca; stroke:none;" d="M55 460L53 463L55 460z"/>
<path style="fill:#81590b; stroke:none;" d="M56 460L57 461L56 460M443 460L446 463L443 460z"/>
<path style="fill:#efe2ca; stroke:none;" d="M444 460L445 461L444 460z"/>
<path style="fill:#81590b; stroke:none;" d="M55 461L56 462L55 461z"/>
<path style="fill:#efe2ca; stroke:none;" d="M445 461L446 462L445 461z"/>
<path style="fill:#81590b; stroke:none;" d="M54 462L55 463L54 462z"/>
<path style="fill:#efe2ca; stroke:none;" d="M446 462L447 463L446 462z"/>
<path style="fill:#bd9f7b; stroke:none;" d="M53 463L54 464L53 463M446 463L447 464L446 463z"/>
<path style="fill:#efe2ca; stroke:none;" d="M52 464C50.8767 468.89 51.2153 472.502 55 476L52 464z"/>
<path style="fill:#81590b; stroke:none;" d="M53 464L54 465L53 464M446 464L447 465L446 464z"/>
<path style="fill:#efe2ca; stroke:none;" d="M447 464L448 471L449 471L447 464z"/>
<path style="fill:#bd9f7b; stroke:none;" d="M52.3333 466.667L52.6667 467.333L52.3333 466.667M447 466L448 467L447 466z"/>
<path style="fill:#81590b; stroke:none;" d="M447 467L447 471L448 471L447 467M52 468L53 469L52 468z"/>
<path style="fill:#bd9f7b; stroke:none;" d="M52.3333 469.667L52.6667 470.333L52.3333 469.667M447 471L448 472L447 471z"/>
<path style="fill:#81590b; stroke:none;" d="M53 472L54 473L53 472z"/>
<path style="fill:#efe2ca; stroke:none;" d="M447.333 472.667L447.667 473.333L447.333 472.667z"/>
<path style="fill:#bd9f7b; stroke:none;" d="M53 473L54 474L53 473z"/>
<path style="fill:#81590b; stroke:none;" d="M54 474L55 475L54 474z"/>
<path style="fill:#efe2ca; stroke:none;" d="M446 474L445 477L446 474z"/>
<path style="fill:#81590b; stroke:none;" d="M55 475L59 478L59 477L55 475z"/>
<path style="fill:#bd9f7b; stroke:none;" d="M445 475L446 476L445 475M55 476L56 477L55 476M444 476L445 477L444 476z"/>
<path style="fill:#efe2ca; stroke:none;" d="M56 477L57 478L56 477z"/>
<path style="fill:#bd9f7b; stroke:none;" d="M443 477L444 478L443 477z"/>
<path style="fill:#efe2ca; stroke:none;" d="M57 478L58 479L57 478z"/>
<path style="fill:#bd9f7b; stroke:none;" d="M58.6667 478.333L59.3333 478.667L58.6667 478.333M441 478L442 479L441 478z"/>
<path style="fill:#efe2ca; stroke:none;" d="M442 478L443 479L442 478M60.6667 479.333L61.3333 479.667L60.6667 479.333z"/>
<path style="fill:#bd9f7b; stroke:none;" d="M62 479L62 480L117 480L99 479L62 479z"/>
<path style="fill:#efe2ca; stroke:none;" d="M117 479L117 480L382 480L358 479L304 479L117 479z"/>
<path style="fill:#bd9f7b; stroke:none;" d="M382 479L382 480L438 480L420 479L382 479z"/>
<path style="fill:#efe2ca; stroke:none;" d="M438 479L438 480L441 480L438 479z"/>
</svg>
