<svg width="512" height="512" viewBox="0 0 512 512" fill="none" xmlns="http://www.w3.org/2000/svg">
<path d="M344.5 64.15V71.242L351.581 71.6383C387.158 73.6291 418.226 96.8373 430.122 130.779C430.122 130.78 430.122 130.78 430.122 130.78L465.322 231.279L466.431 234.447L469.532 235.73C490.033 244.213 504.5 264.446 504.5 288V480C504.5 493.558 493.558 504.5 480 504.5H448C434.442 504.5 423.5 493.558 423.5 480V432V424.5H416H96H88.5V432V480C88.5 493.558 77.5579 504.5 64 504.5H32C18.4676 504.5 7.5 493.553 7.5 480V288C7.5 264.441 21.9311 244.214 42.4724 235.732L45.5782 234.45L46.6886 231.279L81.878 130.78C81.8782 130.78 81.8784 130.779 81.8786 130.779C93.7742 96.8371 124.842 73.6291 160.419 71.6383L167.5 71.242V64.15V64V32C167.5 18.4676 178.447 7.5 192 7.5H320C333.553 7.5 344.5 18.4676 344.5 32V64V64.15ZM128.125 146.913L128.121 146.923L102.021 221.523L98.5302 231.5H109.1H402.9H413.47L409.979 221.523L383.879 146.923L383.875 146.913C378.322 131.115 363.39 120.5 346.6 120.5H165.4C148.61 120.5 133.678 131.115 128.125 146.913ZM96 359.5C117.842 359.5 135.5 341.842 135.5 320C135.5 298.158 117.842 280.5 96 280.5C74.1579 280.5 56.5 298.158 56.5 320C56.5 341.842 74.1579 359.5 96 359.5ZM416 280.5C394.158 280.5 376.5 298.158 376.5 320C376.5 341.842 394.158 359.5 416 359.5C437.842 359.5 455.5 341.842 455.5 320C455.5 298.158 437.842 280.5 416 280.5Z" fill="#FFE600" stroke="black" stroke-width="15"/>
</svg>
