<?xml version="1.0" standalone="yes"?>
<svg xmlns="http://www.w3.org/2000/svg" width="512" height="512">
<path style="fill:#ffffff; stroke:none;" d="M0 0L0 246L1 246C6.99489 237.49 20.5026 220.806 31 218.394C41.886 215.893 58.0116 222.313 67.9097 216.972C77.2337 211.941 84.7928 197.511 93 190.285C114.62 171.251 141.544 155.889 170 150C170 142.409 167.938 131.109 174.225 125.419C179.758 120.41 189.152 122 196 122L251 122C258.068 122 268.065 120.25 273.775 125.419C280.062 131.109 278 142.409 278 150C303.242 155.224 329.561 168.279 349 185.159C356.163 191.379 363.332 197.659 369.385 205C372.415 208.675 375.847 215.426 380.325 217.397C387.383 220.503 400.323 218 408 218C436.903 218 491.917 216.219 503 251C492.146 251 475.135 247.751 465.015 251.742C458.274 254.401 457.15 263.892 462.228 268.697C466.144 272.402 472.014 271.998 477 272L510 272L511 290L512 290L512 0L0 0z"/>
<path style="fill:#444c55; stroke:none;" d="M170 150L210 144.039L278 150C278 142.588 280.37 129.963 273.775 124.703C268.069 120.151 257.801 122 251 122L196 122C189.213 122 178.721 120.117 173.419 125.419C167.808 131.03 170 142.795 170 150z"/>
<path style="fill:#ef7b52; stroke:none;" d="M205 144L205 145L210 145L205 144z"/>
<path style="fill:#fecf55; stroke:none;" d="M43 218C43 225.712 45.0673 237.081 41.0617 243.995C34.4002 255.494 11.2227 251 0 251L0 307C0 313.939 -1.99871 324.674 1.17901 330.999C4.05637 336.726 10.838 340.576 16 343.996C32.6737 355.043 48.335 358 68 358C64.8302 339.352 61.1516 323.949 73.0424 307C98.4899 270.727 153.277 277.609 168.135 320C172.91 333.623 168.984 344.515 167 358L345 358C343.016 344.515 339.09 333.623 343.865 320C357.176 282.023 407.379 269.562 434.384 301.039C450.184 319.456 447.715 336.143 444 358L490 358C496.116 358 503.859 359.092 508.772 354.581C514.165 349.628 512 338.621 512 332C512 311.885 510.413 292.001 510 272C498.231 272 472.421 276.809 463.109 268.697C457.213 263.561 458.54 254.634 466.004 251.742C475.955 247.887 492.355 251 503 251C500.261 236.835 484.742 228.062 472 224.294C453.393 218.792 432.29 218.001 413 218C403.593 217.999 391.171 220.157 382.093 217.682C376.211 216.079 371.547 206.408 367.711 202C359.464 192.522 349.388 183.804 339 176.746C302.846 152.181 256.579 141.105 213 144.09C176.961 146.557 142.588 154.775 112 174.695C100.702 182.053 90.2618 191.136 81.0895 201C76.6597 205.764 72.7998 213.914 66.9606 216.972C60.9093 220.142 49.724 218 43 218z"/>
<path style="fill:#ef7b52; stroke:none;" d="M238 144L238 145L243 145L238 144M197.667 145.333L198.333 145.667L197.667 145.333M249.667 145.333L250.333 145.667L249.667 145.333M189 146L189 147L192 147L189 146M256 146L256 147L259 147L256 146M182.667 147.333L183.333 147.667L182.667 147.333M264.667 147.333L265.333 147.667L264.667 147.333M178 148L179 149L178 148M269 148L270 149L269 148M174 149L175 150L174 149M273 149L274 150L273 149z"/>
<path style="fill:#4dc1e7; stroke:none;" d="M96 218L351 218C341.028 198.777 313.296 185.257 294 177.601C247.851 159.292 192.409 161.145 147 180.579C128.593 188.457 107.683 201.415 96 218z"/>
<path style="fill:#fecf55; stroke:none;" d="M29 218L30 219L29 218z"/>
<path style="fill:#ef7b52; stroke:none;" d="M0 251C10.2812 251 33.5287 255.299 40.436 245.941C45.4646 239.129 43 226.016 43 218C27.5141 218 21.841 223.158 11 234C5.86004 239.14 0.41896 243.347 0 251z"/>
<path style="fill:#fecf55; stroke:none;" d="M504.333 252.667L504.667 253.333L504.333 252.667z"/>
<path style="fill:#ef7b52; stroke:none;" d="M168.667 261.333L169.333 261.667L168.667 261.333z"/>
<path style="fill:#444c55; stroke:none;" d="M170.001 261.78C156.539 262.553 158.368 283.183 171.999 281.887C184.848 280.665 182.87 261.042 170.001 261.78z"/>
<path style="fill:#ef7b52; stroke:none;" d="M171.667 261.333L172.333 261.667L171.667 261.333M211.667 261.333L212.333 261.667L211.667 261.333z"/>
<path style="fill:#444c55; stroke:none;" d="M213 261.772C199.763 262.269 200.628 282.42 213.999 281.927C227.077 281.444 226.072 261.282 213 261.772z"/>
<path style="fill:#ef7b52; stroke:none;" d="M214.667 261.333L215.333 261.667L214.667 261.333M254 261L255 262L254 261z"/>
<path style="fill:#444c55; stroke:none;" d="M255 261.657C242.229 262.993 243.893 282.93 257 281.876C270.363 280.801 268.055 260.292 255 261.657z"/>
<path style="fill:#ef7b52; stroke:none;" d="M257 261L258 262L257 261M296.667 261.333L297.333 261.667L296.667 261.333z"/>
<path style="fill:#444c55; stroke:none;" d="M298.001 261.78C284.539 262.553 286.368 283.183 299.999 281.887C312.848 280.665 310.87 261.042 298.001 261.78z"/>
<path style="fill:#ef7b52; stroke:none;" d="M299.667 261.333L300.333 261.667L299.667 261.333M339.667 261.333L340.333 261.667L339.667 261.333z"/>
<path style="fill:#444c55; stroke:none;" d="M341 261.772C327.763 262.269 328.628 282.42 341.999 281.927C355.077 281.444 354.072 261.282 341 261.772z"/>
<path style="fill:#ef7b52; stroke:none;" d="M342.667 261.333L343.333 261.667L342.667 261.333z"/>
<path style="fill:#fecf55; stroke:none;" d="M507 261L507 264L508 264L507 261z"/>
<path style="fill:#ef7b52; stroke:none;" d="M175 262L176 263L175 262M208 262L209 263L208 262M303 262L304 263L303 262M336 262L337 263L336 262M164 263L165 264L164 263M219 263L220 264L219 263M262 263L263 264L262 263M292 263L293 264L292 263M347 263L348 264L347 263M178 264L179 265L178 264M248 264L249 265L248 264M263 264L264 265L263 264M306 264L307 265L306 264M162 265L163 266L162 265M264 265L265 266L264 265M290 265L291 266L290 265M204 266L205 267L204 266M222 266L223 267L222 266M332 266L333 267L332 266M350 266L351 267L350 266z"/>
<path style="fill:#fecf55; stroke:none;" d="M508 266L509 267L508 266z"/>
<path style="fill:#ef7b52; stroke:none;" d="M180 267L181 268L180 267M246 267L247 268L246 267M308 267L309 268L308 267M203 268L204 269L203 268M223.333 268.667L223.667 269.333L223.333 268.667M331 268L332 269L331 268M351.333 268.667L351.667 269.333L351.333 268.667M160 269L161 270L160 269M288 269L289 270L288 269M245 270L245 273L246 273L245 270M266 270L267 271L266 270M181.333 271.667L181.667 272.333L181.333 271.667M309.333 271.667L309.667 272.333L309.333 271.667M266.333 272.667L266.667 273.333L266.333 272.667M160.333 273.667L160.667 274.333L160.333 273.667M288.333 273.667L288.667 274.333L288.333 273.667M223.333 274.667L223.667 275.333L223.333 274.667M351.333 274.667L351.667 275.333L351.333 274.667M203 275L204 276L203 275M331 275L332 276L331 275M246 276L247 277L246 276M179 277L180 278L179 277M204 277L205 278L204 277M307 277L308 278L307 277M332 277L333 278L332 277M162 278L163 279L162 278M221 278L222 279L221 278M290 278L291 279L290 278M349 278L350 279L349 278M248 279L249 280L248 279M263 279L264 280L263 279M164 280L165 281L164 280M207 280L208 281L207 280M219 280L220 281L219 280M292 280L293 281L292 280M335 280L336 281L335 280M347 280L348 281L347 280M175 281L176 282L175 281M251 281L252 282L251 281M260 281L261 282L260 281M303 281L304 282L303 281M169 282L169 283L172 283L169 282M191.667 282.333L192.333 282.667L191.667 282.333M212 282L212 283L215 283L212 282M234 282L235 283L234 282M255 282L255 283L258 283L255 282M277 282L278 283L277 282M297 282L297 283L300 283L297 282M319.667 282.333L320.333 282.667L319.667 282.333M340 282L340 283L343 283L340 282M107 283L107 284L110 284L107 283z"/>
<path style="fill:#444c55; stroke:none;" d="M110 283.439C101.809 284.718 93.7893 287.444 87 292.301C43.3284 323.541 68.9102 397.464 124 389.572C132.228 388.393 140.049 385.923 147 381.251C192.218 350.861 165.241 274.811 110 283.439z"/>
<path style="fill:#ef7b52; stroke:none;" d="M125.667 283.333L126.333 283.667L125.667 283.333z"/>
<path style="fill:#444c55; stroke:none;" d="M188.015 283.858C176.076 288.828 183.757 307.811 195.96 302.757C208.172 297.698 200.359 278.72 188.015 283.858z"/>
<path style="fill:#ef7b52; stroke:none;" d="M196 283L197 284L196 283M230 283L231 284L230 283z"/>
<path style="fill:#444c55; stroke:none;" d="M231.005 283.742C218.935 288.415 225.731 307.214 237.996 302.953C250.748 298.523 243.722 278.819 231.005 283.742z"/>
<path style="fill:#ef7b52; stroke:none;" d="M273 283L274 284L273 283z"/>
<path style="fill:#444c55; stroke:none;" d="M274.015 283.654C261.881 287.509 267.823 306.421 279.996 303.156C293.198 299.615 287.038 279.516 274.015 283.654z"/>
<path style="fill:#ef7b52; stroke:none;" d="M281 283L282 284L281 283z"/>
<path style="fill:#444c55; stroke:none;" d="M316.015 283.858C304.076 288.828 311.757 307.812 323.96 302.757C336.172 297.698 328.359 278.72 316.015 283.858z"/>
<path style="fill:#ef7b52; stroke:none;" d="M324 283L325 284L324 283M385.667 283.333L386.333 283.667L385.667 283.333z"/>
<path style="fill:#444c55; stroke:none;" d="M387 283.439C379.117 284.67 371.6 287.208 365 291.774C320.918 322.266 345.67 397.498 401 389.572C409.646 388.333 417.731 385.759 425 380.78C470.066 349.913 441.726 274.892 387 283.439z"/>
<path style="fill:#ef7b52; stroke:none;" d="M402 283L402 284L405 284L402 283M103.667 284.333L104.333 284.667L103.667 284.333M130 284L131 285L130 284M186 284L187 285L186 284M240 284L241 285L240 284M271 284L272 285L271 284M314 284L315 285L314 284M381 284L382 285L381 284M407.667 284.333L408.333 284.667L407.667 284.333M100 285L101 286L100 285M134 285L135 286L134 285M199 285L200 286L199 285M227 285L228 286L227 285M284 285L285 286L284 285M327 285L328 286L327 285M377 285L378 286L377 285M411 285L412 286L411 285M97 286L98 287L97 286M226 286L227 287L226 286M285 286L286 287L285 286M414 286L415 287L414 286M95 287L96 288L95 287M139 287L140 288L139 287M243 287L244 288L243 287M268 287L269 288L268 287M372 287L373 288L372 287M416 287L417 288L416 287M93 288L94 289L93 288M141 288L142 289L141 288M182 288L183 289L182 288M201 288L202 289L201 288M310 288L311 289L310 288M329 288L330 289L329 288M370 288L371 289L370 288M418 288L419 289L418 288M91 289L92 290L91 289M143 289L144 290L143 289M267 289L268 290L267 289M287.333 289.667L287.667 290.333L287.333 289.667M368 289L369 290L368 289M420 289L421 290L420 289M89 290L90 291L89 290M224.333 290.667L224.667 291.333L224.333 290.667M422 290L423 291L422 290M146 291L147 292L146 291M202.333 291.667L202.667 292.333L202.333 291.667M330.333 291.667L330.667 292.333L330.333 291.667M365 291L366 292L365 291M181 292L181 295L182 295L181 292M309 292L309 295L310 295L309 292M85 293L86 294L85 293M245 293L246 294L245 293M426 293L427 294L426 293M84 294L85 295L84 294M150 294L151 295L150 294M202 294L203 295L202 294M330 294L331 295L330 294M361 294L362 295L361 294M151 295L152 296L151 295M224 295L225 296L224 295M287.333 295.667L287.667 296.333L287.333 295.667M360 295L361 296L360 295M267.333 296.667L267.667 297.333L267.333 296.667M80 297L81 298L80 297M244 297L245 298L244 297M431 297L432 298L431 297M79 298L80 299L79 298M225 298L226 299L225 298M286 298L287 299L286 298M432 298L433 299L432 298M183 299L184 300L183 299M200 299L201 300L200 299M311 299L312 300L311 299M328 299L329 300L328 299M433 299L434 300L433 299M242 300L243 301L242 300M269 300L270 301L269 300M157 301L158 302L157 301M185 301L186 302L185 301M198 301L199 302L198 301M241 301L242 302L241 301M313 301L314 302L313 301M326 301L327 302L326 301M354 301L355 302L354 301M158 302L159 303L158 302M229 302L230 303L229 302M272 302L273 303L272 302M282 302L283 303L282 302M353 302L354 303L353 302M75 303L76 304L75 303M189.667 303.333L190.333 303.667L189.667 303.333M194 303L195 304L194 303M232 303L233 304L232 303M236.667 303.333L237.333 303.667L236.667 303.333M274.667 303.333L275.333 303.667L274.667 303.333M279.667 303.333L280.333 303.667L279.667 303.333M317.667 303.333L318.333 303.667L317.667 303.333M322 303L323 304L322 303M436 303L437 304L436 303M74 304L75 305L74 304M437 304L438 305L437 304M72 307L73 308L72 307M162 307L163 308L162 307M439 307L440 308L439 307M163 309L164 310L163 309M348 309L349 310L348 309M70 310L71 311L70 310M441 310L442 311L441 310M164 311L165 312L164 311M347 311L348 312L347 311M69 312L70 313L69 312M442 312L443 313L442 312M165 313L166 314L165 313M346 313L347 314L346 313M68 314L69 315L68 314M443 314L444 315L443 314M166 315L167 316L166 315M345 315L346 316L345 315M67 317L68 318L67 317M444 317L445 318L444 317M344 318L345 319L344 318M66 319L67 320L66 319M445 319L446 320L445 319M168.333 320.667L168.667 321.333L168.333 320.667M343.333 320.667L343.667 321.333L343.333 320.667M65 323L66 324L65 323M446 323L447 324L446 323M169.333 324.667L169.667 325.333L169.333 324.667M342.333 324.667L342.667 325.333L342.333 324.667z"/>
<path style="fill:#4dc1e7; stroke:none;" d="M116 325L116 326L119 326L116 325M393 325L393 326L396 326L393 325z"/>
<path style="fill:#ffffff; stroke:none;" d="M113.043 326.858C100.859 332.071 109.861 350.476 121.906 345.142C133.588 339.968 124.741 321.853 113.043 326.858z"/>
<path style="fill:#fecf55; stroke:none;" d="M121 326L122 327L121 326M390 326L391 327L390 326z"/>
<path style="fill:#ffffff; stroke:none;" d="M391.005 326.742C378.498 331.584 386.506 350.485 398.957 345.142C410.593 340.148 402.869 322.149 391.005 326.742z"/>
<path style="fill:#fecf55; stroke:none;" d="M111 327L112 328L111 327z"/>
<path style="fill:#4dc1e7; stroke:none;" d="M123 327L124 328L123 327M388 327L389 328L388 327z"/>
<path style="fill:#fecf55; stroke:none;" d="M400 327L401 328L400 327z"/>
<path style="fill:#ef7b52; stroke:none;" d="M64.3333 328.667L64.6667 329.333L64.3333 328.667z"/>
<path style="fill:#fecf55; stroke:none;" d="M124 328L125 329L124 328M387 328L388 329L387 328z"/>
<path style="fill:#ef7b52; stroke:none;" d="M447.333 328.667L447.667 329.333L447.333 328.667z"/>
<path style="fill:#4dc1e7; stroke:none;" d="M125 329L126 330L125 329M386 329L387 330L386 329z"/>
<path style="fill:#ffffff; stroke:none;" d="M0 330L0 512L512 512L512 351L511 351C497.408 369.252 463.373 350.782 445.21 358.603C440.078 360.813 436.518 369.702 432.572 373.711C423.301 383.129 411.075 388.57 398 389.83C383.539 391.224 368.357 384.738 358.015 374.91C353.704 370.813 348.814 359.169 342.895 358.148C327.544 355.501 309.594 358 294 358L192 358C185.272 358 173.52 355.721 167.39 358.603C162.606 360.853 158.847 370.079 154.961 373.961C143.262 385.644 126.445 391.933 110 389.246C97.2925 387.17 86.9298 381.299 78.0401 371.999C74.5274 368.325 71.8823 361.687 67.6211 359.028C61.6032 355.272 49.1644 357.891 42 355.985C25.6112 351.624 12.2103 341.278 0 330z"/>
<path style="fill:#4dc1e7; stroke:none;" d="M108 330L109 331L108 330z"/>
<path style="fill:#ef7b52; stroke:none;" d="M170 330L170 335L171 335L170 330M341 330L341 335L342 335L341 330z"/>
<path style="fill:#4dc1e7; stroke:none;" d="M403 330L404 331L403 330z"/>
<path style="fill:#fecf55; stroke:none;" d="M107 332L108 333L107 332M404 332L405 333L404 332z"/>
<path style="fill:#4dc1e7; stroke:none;" d="M127 333L128 334L127 333M384 333L385 334L384 333z"/>
<path style="fill:#fecf55; stroke:none;" d="M127 334L128 335L127 334M384 334L385 335L384 334M127 337L128 338L127 337z"/>
<path style="fill:#ef7b52; stroke:none;" d="M170 337L170 342L171 342L170 337M341 337L341 342L342 342L341 337z"/>
<path style="fill:#fecf55; stroke:none;" d="M384 337L385 338L384 337z"/>
<path style="fill:#4dc1e7; stroke:none;" d="M127 338L128 339L127 338M384 338L385 339L384 338z"/>
<path style="fill:#fecf55; stroke:none;" d="M107 339L108 340L107 339M404 339L405 340L404 339M108 341L109 342L108 341M403 341L404 342L403 341z"/>
<path style="fill:#ef7b52; stroke:none;" d="M64.3333 342.667L64.6667 343.333L64.3333 342.667z"/>
<path style="fill:#fecf55; stroke:none;" d="M125 342L126 343L125 342M386 342L387 343L386 342z"/>
<path style="fill:#ef7b52; stroke:none;" d="M447.333 342.667L447.667 343.333L447.333 342.667z"/>
<path style="fill:#fecf55; stroke:none;" d="M111 344L112 345L111 344z"/>
<path style="fill:#4dc1e7; stroke:none;" d="M123 344L124 345L123 344M388 344L389 345L388 344z"/>
<path style="fill:#fecf55; stroke:none;" d="M400 344L401 345L400 344z"/>
<path style="fill:#4dc1e7; stroke:none;" d="M112 345L113 346L112 345M399 345L400 346L399 345M115.667 346.333L116.333 346.667L115.667 346.333z"/>
<path style="fill:#fecf55; stroke:none;" d="M117 346L118 347L117 346z"/>
<path style="fill:#4dc1e7; stroke:none;" d="M118 346L119 347L118 346z"/>
<path style="fill:#ef7b52; stroke:none;" d="M342.333 346.667L342.667 347.333L342.333 346.667z"/>
<path style="fill:#4dc1e7; stroke:none;" d="M393 346L394 347L393 346z"/>
<path style="fill:#fecf55; stroke:none;" d="M394 346L395 347L394 346z"/>
<path style="fill:#4dc1e7; stroke:none;" d="M395.667 346.333L396.333 346.667L395.667 346.333z"/>
<path style="fill:#ef7b52; stroke:none;" d="M169 347L170 348L169 347M65 348L66 349L65 348M446 348L447 349L446 348M343.333 350.667L343.667 351.333L343.333 350.667M168 351L169 352L168 351M66 352L67 353L66 352M445 352L446 353L445 352M167 354L168 355L167 354M344 354L345 355L344 354M166.333 356.667L166.667 357.333L166.333 356.667M345.333 356.667L345.667 357.333L345.333 356.667z"/>
</svg>
